<svg width="18" height="18" viewBox="0 0 18 18" fill="none" xmlns="http://www.w3.org/2000/svg">
<path d="M17.3685 2.17364L17.3685 15.2032C17.3632 15.4458 17.3101 15.6849 17.2122 15.9068C17.0253 16.3544 16.6695 16.7102 16.2219 16.8971C16 16.995 15.7609 17.0481 15.5183 17.0534L2.48874 17.0534C2.24577 17.0534 2.00518 17.0056 1.7807 16.9126C1.55622 16.8196 1.35226 16.6833 1.18045 16.5115C0.83347 16.1645 0.638539 15.6939 0.638539 15.2032C0.638539 14.7125 0.833471 14.2419 1.18045 13.8949C1.52743 13.5479 1.99804 13.353 2.48874 13.353L11.0752 13.366L1.18578 3.4766C0.840216 3.13103 0.646079 2.66234 0.646079 2.17364C0.646079 1.68494 0.840217 1.21625 1.18578 0.870683C1.53135 0.525117 2.00004 0.330979 2.48874 0.330979C2.97744 0.330979 3.44613 0.525117 3.7917 0.870682L13.6811 10.7601L13.6681 2.17364C13.6671 1.93039 13.7143 1.68935 13.8069 1.46442C13.8995 1.23949 14.0358 1.03513 14.2078 0.863127C14.3798 0.691122 14.5842 0.554875 14.8091 0.462246C15.034 0.369619 15.2751 0.322444 15.5183 0.323441C15.7616 0.322443 16.0026 0.369618 16.2275 0.462246C16.4525 0.554874 16.6568 0.691122 16.8288 0.863127C17.0008 1.03513 17.1371 1.23949 17.2297 1.46442C17.3223 1.68935 17.3695 1.93039 17.3685 2.17364Z" fill="white"/>
</svg>
