<svg width="32" height="32" viewBox="0 0 32 32" fill="none" xmlns="http://www.w3.org/2000/svg">
<rect x="0.5" y="0.5" width="31" height="31" rx="9.5" stroke="url(#paint0_linear_2570_657)"/>
<path fill-rule="evenodd" clip-rule="evenodd" d="M10.4108 10.4107C10.7363 10.0853 11.2639 10.0853 11.5893 10.4107L16.0001 14.8214L20.4108 10.4107C20.7363 10.0853 21.2639 10.0853 21.5893 10.4107C21.9148 10.7361 21.9148 11.2638 21.5893 11.5892L17.1786 16L21.5893 20.4107C21.9148 20.7361 21.9148 21.2638 21.5893 21.5892C21.2639 21.9147 20.7363 21.9147 20.4108 21.5892L16.0001 17.1785L11.5893 21.5892C11.2639 21.9147 10.7363 21.9147 10.4108 21.5892C10.0854 21.2638 10.0854 20.7361 10.4108 20.4107L14.8216 16L10.4108 11.5892C10.0854 11.2638 10.0854 10.7361 10.4108 10.4107Z" fill="white"/>
<defs>
<linearGradient id="paint0_linear_2570_657" x1="16" y1="0" x2="16" y2="32" gradientUnits="userSpaceOnUse">
<stop stop-color="#7A7A7A"/>
<stop offset="1" stop-color="#98A8FF" stop-opacity="0.48"/>
</linearGradient>
</defs>
</svg>
