<svg width="153" height="212" viewBox="0 0 153 212" fill="none" xmlns="http://www.w3.org/2000/svg">
<g opacity="0.3">
<g clip-path="url(#clip0_2209_5068)">
<path d="M128.178 235.737C128.178 235.882 128.295 236 128.44 236H167.737C167.882 236 168 235.882 168 235.737V155.46C168 155.36 167.943 155.269 167.854 155.225L128.557 135.837C128.382 135.751 128.178 135.878 128.178 136.072V235.737Z" stroke="white" stroke-width="2"/>
<path d="M168 26.9618C168 26.8741 167.956 26.7922 167.883 26.7435L128.586 0.485719C128.412 0.369102 128.178 0.494201 128.178 0.704103L128.178 127.133C128.178 127.233 128.235 127.324 128.324 127.368L167.621 146.756C167.796 146.842 168 146.715 168 146.521V26.9618Z" stroke="white" stroke-width="2"/>
<path d="M95.8222 0.745549C95.8222 0.497626 95.5103 0.387744 95.3549 0.580923L0.0579941 119.048C0.0204605 119.095 0 119.153 0 119.213V235.737C0 235.882 0.117592 236 0.262649 236H95.5596C95.7046 236 95.8222 235.882 95.8222 235.737L95.8222 0.745549Z" stroke="white" stroke-width="2"/>
</g>
</g>
<defs>
<clipPath id="clip0_2209_5068">
<path d="M0 0H153V180C153 197.673 138.673 212 121 212H0V0Z" fill="white"/>
</clipPath>
</defs>
</svg>
