<svg width="17" height="18" viewBox="0 0 17 18" fill="none" xmlns="http://www.w3.org/2000/svg">
<path d="M16.869 15.5136L16.869 2.48404C16.8637 2.2415 16.8106 2.0024 16.7126 1.78044C16.5257 1.3329 16.1699 0.977095 15.7224 0.790194C15.5004 0.692268 15.2613 0.639134 15.0188 0.63384L1.98923 0.63384C1.74626 0.63384 1.50566 0.681696 1.28119 0.774678C1.05671 0.867659 0.852746 1.00394 0.680938 1.17575C0.333958 1.52273 0.139028 1.99334 0.139028 2.48404C0.139027 2.97474 0.333959 3.44535 0.680939 3.79233C1.02792 4.13931 1.49852 4.33424 1.98923 4.33424L10.5757 4.32121L0.68627 14.2107C0.340705 14.5562 0.146567 15.0249 0.146567 15.5136C0.146567 16.0023 0.340705 16.471 0.686271 16.8166C1.03184 17.1621 1.50052 17.3563 1.98923 17.3563C2.47793 17.3563 2.94662 17.1621 3.29218 16.8166L13.1816 6.92712L13.1686 15.5136C13.1676 15.7569 13.2148 15.9979 13.3074 16.2228C13.4 16.4478 13.5363 16.6521 13.7083 16.8241C13.8803 16.9961 14.0847 17.1324 14.3096 17.225C14.5345 17.3176 14.7756 17.3648 15.0188 17.3638C15.2621 17.3648 15.5031 17.3176 15.728 17.225C15.953 17.1324 16.1573 16.9961 16.3293 16.8241C16.5013 16.6521 16.6376 16.4478 16.7302 16.2228C16.8228 15.9979 16.87 15.7569 16.869 15.5136Z" fill="white"/>
</svg>
