<svg width="328" height="40" viewBox="0 0 328 40" fill="none" xmlns="http://www.w3.org/2000/svg">
<path d="M21.6639 39.7374C21.6639 39.8824 21.7815 40 21.9265 40H28.1323C28.2774 40 28.395 39.8824 28.395 39.7374V26.4846C28.395 26.3847 28.3383 26.2935 28.2488 26.2492L22.043 23.179C21.8684 23.0927 21.6639 23.2197 21.6639 23.4145V39.7374Z" fill="white"/>
<path d="M28.395 4.68618C28.395 4.59858 28.3513 4.51675 28.2785 4.46798L22.0727 0.309987C21.8982 0.193067 21.6639 0.318134 21.6639 0.528186V21.4125C21.6639 21.5124 21.7205 21.6036 21.81 21.6479L28.0159 24.7181C28.1904 24.8044 28.395 24.6774 28.395 24.4826V4.68618Z" fill="white"/>
<path d="M16.1948 0.747139C16.1948 0.499041 15.8825 0.389262 15.7273 0.582784L0.0558243 20.1179C0.0184282 20.1645 -0.00195312 20.2225 -0.00195312 20.2822V39.7374C-0.00195312 39.8824 0.115639 40 0.260696 40H15.9322C16.0772 40 16.1948 39.8824 16.1948 39.7374L16.1948 0.747139Z" fill="white"/>
<path d="M222.991 33.9087C216.078 33.9087 212.366 29.8229 212.366 24.7497C212.366 19.6765 216.418 15.829 222.173 15.829C228.099 15.829 231.776 19.9829 231.742 24.6816C231.742 25.0221 231.742 25.8392 231.708 26.1457L217.372 26.1116C217.372 27.9843 219.075 30.3336 222.582 30.3336C224.864 30.3336 226.26 29.3462 226.6 28.495H231.368C230.857 30.2655 228.337 33.9087 222.991 33.9087ZM217.372 23.3196H226.873C226.873 20.9703 225.136 19.1317 222.276 19.1317C219.381 19.1317 217.372 21.1746 217.372 23.3196Z" fill="white"/>
<path d="M201.58 27.6438V19.9829H198.175V16.3397H201.58V9.90454H205.735V16.3397H210.161V19.9829H205.735V27.6438C205.735 29.0738 206.382 29.4824 207.982 29.4824H209.991V33.3639H205.871C202.67 33.3639 201.58 30.3677 201.58 27.6438Z" fill="white"/>
<path d="M189.914 31.6615C188.654 33.0575 186.883 33.9087 184.602 33.9087C179.528 33.9087 175.952 29.8229 175.952 24.7497C175.952 19.6765 179.528 15.829 184.602 15.829C186.883 15.829 188.654 16.6121 189.88 17.94C190.595 18.689 190.731 20.085 191.072 21.0724L191.787 20.8341C191.48 19.8467 190.867 18.655 190.867 17.6335L190.833 16.3397H195.022V33.3639H190.833L190.867 31.9679C190.867 30.9465 191.48 29.7207 191.787 28.7674L191.038 28.5291C190.731 29.4824 190.595 30.8784 189.914 31.6615ZM180.141 24.7497C180.141 27.6097 182.014 30.0272 184.84 30.0272C187.632 30.0272 189.505 27.5416 189.607 24.7497C189.607 21.7534 187.939 19.7105 184.84 19.7105C182.014 19.7105 180.141 21.8556 180.141 24.7497Z" fill="white"/>
<path d="M165.166 27.6438V19.9829H161.761V16.3397H165.166V9.90454H169.32V16.3397H173.747V19.9829H169.32V27.6438C169.32 29.0738 169.967 29.4824 171.568 29.4824H173.577V33.3639H169.457C166.256 33.3639 165.166 30.3677 165.166 27.6438Z" fill="white"/>
<path d="M159.554 27.8481C159.554 31.1508 156.966 33.9087 151.415 33.9087C145.558 33.9087 142.8 30.4358 142.8 27.5757H146.988C146.988 28.461 148.657 29.9931 151.858 29.9931C154.446 29.9931 155.297 29.0738 155.297 28.1205C155.297 24.7837 142.936 26.9969 142.936 20.8682C142.936 18.2124 145.49 15.829 150.87 15.829C156.898 15.829 159.179 18.7912 159.179 21.1746H154.991C154.991 20.085 153.39 19.2338 150.632 19.2338C148.759 19.2338 147.125 19.7446 147.125 20.8341C147.125 23.2856 159.554 20.9362 159.554 27.8481Z" fill="white"/>
<path d="M124.373 33.3658V9.53186H140.991V13.6858H128.698V19.1335H140.14V23.2874H128.698V29.2119H141.161V33.3658H124.373Z" fill="white"/>
<path d="M103.786 29.246V8.68079H107.975V27.6458C107.975 29.0418 108.554 29.4844 110.12 29.4844H112.231V33.3659H109.711C105.829 33.3659 103.786 31.9018 103.786 29.246Z" fill="white"/>
<path d="M94.6062 31.6615C93.3462 33.0575 91.5755 33.9087 89.294 33.9087C84.2201 33.9087 80.6445 29.8229 80.6445 24.7497C80.6445 19.6765 84.2201 15.829 89.294 15.829C91.5755 15.829 93.3462 16.6121 94.5721 17.94C95.2872 18.689 95.4235 20.085 95.764 21.0724L96.4791 20.8341C96.1726 19.8467 95.5597 18.655 95.5597 17.6335L95.5256 16.3397H99.7141V33.3639H95.5256L95.5597 31.9679C95.5597 30.9465 96.1726 29.7207 96.4791 28.7674L95.7299 28.5291C95.4235 29.4824 95.2872 30.8784 94.6062 31.6615ZM84.833 24.7497C84.833 27.6097 86.7059 30.0272 89.5323 30.0272C92.3247 30.0272 94.1976 27.5416 94.2997 24.7497C94.2997 21.7534 92.6311 19.7105 89.5323 19.7105C86.7059 19.7105 84.833 21.8556 84.833 24.7497Z" fill="white"/>
<path d="M70.6176 33.9087C63.7049 33.9087 59.9932 29.8229 59.9932 24.7497C59.9932 19.6765 64.0455 15.829 69.8004 15.829C75.7256 15.829 79.4033 19.9829 79.3692 24.6816C79.3692 25.0221 79.3692 25.8392 79.3352 26.1457L64.9989 26.1116C64.9989 27.9843 66.7016 30.3336 70.209 30.3336C72.4906 30.3336 73.8867 29.3462 74.2272 28.495H78.9946C78.4839 30.2655 75.9639 33.9087 70.6176 33.9087ZM64.9989 23.3196H74.4997C74.4997 20.9703 72.763 19.1317 69.9025 19.1317C67.008 19.1317 64.9989 21.1746 64.9989 23.3196Z" fill="white"/>
<path d="M53.2827 22.981C54.6449 23.7982 55.2578 25.2622 55.8027 27.4073C56.1091 28.7692 57.6075 33.3658 57.6075 33.3658H53.0103C52.2612 30.3695 51.6823 28.1564 51.5801 27.6797C50.4904 23.8322 48.1067 24.2408 46.8468 24.1727C46.6084 24.1727 46.336 24.1727 46.0295 24.1727C45.2122 24.1727 43.4755 24.1727 43.0669 24.1727V33.3658H38.7422V9.53186H47.2554C52.6017 9.53186 57.0286 10.6214 57.0286 16.2054C57.0286 19.2697 55.4281 20.6317 53.2827 21.551C52.159 22.0617 50.5245 21.8574 49.2986 21.8574V22.6405C50.5245 22.6405 52.2612 22.3 53.2827 22.981ZM43.0669 12.4941V20.4955H46.9149C49.8775 20.4955 52.5676 19.3038 52.5676 16.2735C52.5676 13.2772 50.0818 12.4941 46.9149 12.4941H43.0669Z" fill="white"/>
<g filter="url(#filter0_b_2242_113)">
<rect x="242.136" y="11.2977" width="85.8015" height="28.7023" rx="14.3511" fill="#2847F5" fill-opacity="0.4"/>
<path d="M303.976 24.8221C303.976 21.9333 306.02 19.8887 308.984 19.8887C311.948 19.8887 313.993 21.9896 313.993 24.8221C313.993 27.6546 311.948 29.8493 308.984 29.8493C306.02 29.8493 303.976 27.6921 303.976 24.8221ZM305.664 24.8221C305.664 26.6979 306.752 28.2736 308.984 28.2736C311.216 28.2736 312.304 26.7167 312.304 24.8221C312.304 22.9275 311.216 21.4644 308.984 21.4644C306.752 21.4644 305.664 22.9275 305.664 24.8221Z" fill="white"/>
<path d="M298.65 26.9996V21.7098H296.774V20.2091H298.65V17.0577H300.282V20.2091H302.721V21.7098H300.282V26.9996C300.282 27.7687 300.639 27.9938 301.52 27.9938H302.627V29.5507H300.864C299.419 29.5507 298.65 28.4252 298.65 26.9996Z" fill="white"/>
<path d="M287.396 28.8176V34.2387H285.764V20.17H287.396V20.8453C287.396 21.4081 287.133 22.0834 286.945 22.6086L287.264 22.7212C287.433 22.1772 287.583 21.4268 287.958 21.0329C288.671 20.3014 289.647 19.8887 290.904 19.8887C293.736 19.8887 295.593 22.0084 295.556 24.8033C295.537 27.5796 293.699 29.8493 290.904 29.8493C289.647 29.8493 288.653 29.3803 287.958 28.63C287.583 28.2173 287.433 27.467 287.264 26.9418L286.945 27.0356C287.133 27.5796 287.396 28.2549 287.396 28.8176ZM290.81 21.4268C288.671 21.4268 287.546 22.89 287.546 24.8033C287.546 26.6979 288.671 28.2924 290.81 28.2924C292.93 28.2924 293.924 26.6979 293.924 24.8033C293.924 22.89 292.93 21.4268 290.81 21.4268Z" fill="white"/>
<path d="M275.975 20.1714L278.939 26.6805C279.164 27.1682 279.146 27.8435 279.146 28.3875H279.483C279.483 27.8435 279.465 27.1682 279.69 26.6805L282.654 20.1714H284.529L280.215 29.5318C279.952 30.1133 279.708 30.5822 279.446 31.1825C278.658 33.002 277.964 34.2401 276.332 34.2401H274.4V32.6456H275.713C276.857 32.6456 277.157 32.0078 277.72 30.8636L278.395 29.438L274.1 20.1714H275.975Z" fill="white"/>
<path d="M269.438 20.9767C270.32 20.0763 271.183 19.8887 273.209 19.8887V21.4456C271.014 21.4456 268.838 22.1772 268.838 24.7658V29.5492H267.206V20.17H268.838V20.7516C268.838 21.2955 268.557 21.9521 268.369 22.4586L268.669 22.5711C268.857 22.0646 269.044 21.3518 269.438 20.9767Z" fill="white"/>
<path d="M256.081 24.8049C256.081 21.9161 258.107 19.8902 261.015 19.8715C263.922 19.8902 265.292 21.8598 265.517 23.0791H263.81C263.641 22.4976 262.759 21.4472 261.015 21.4472C258.876 21.4472 257.713 22.854 257.713 24.7861C257.713 26.737 259.026 28.2752 261.183 28.2752C262.928 28.2752 263.697 27.2059 263.866 26.6244H265.573C265.31 27.8812 264.072 29.8321 261.183 29.8508C258.238 29.8321 256.081 27.6749 256.081 24.8049Z" fill="white"/>
</g>
<defs>
<filter id="filter0_b_2242_113" x="229.349" y="-1.48881" width="111.375" height="54.2753" filterUnits="userSpaceOnUse" color-interpolation-filters="sRGB">
<feFlood flood-opacity="0" result="BackgroundImageFix"/>
<feGaussianBlur in="BackgroundImageFix" stdDeviation="6.39327"/>
<feComposite in2="SourceAlpha" operator="in" result="effect1_backgroundBlur_2242_113"/>
<feBlend mode="normal" in="SourceGraphic" in2="effect1_backgroundBlur_2242_113" result="shape"/>
</filter>
</defs>
</svg>
