<svg width="32" height="32" viewBox="0 0 32 32" fill="none" xmlns="http://www.w3.org/2000/svg">
<rect x="0.5" y="0.5" width="31" height="31" rx="9.5" stroke="url(#paint0_linear_2570_397)"/>
<path fill-rule="evenodd" clip-rule="evenodd" d="M7.66663 11C7.66663 10.5397 8.03972 10.1666 8.49996 10.1666H23.5C23.9602 10.1666 24.3333 10.5397 24.3333 11C24.3333 11.4602 23.9602 11.8333 23.5 11.8333H8.49996C8.03972 11.8333 7.66663 11.4602 7.66663 11ZM7.66663 16C7.66663 15.5397 8.03972 15.1666 8.49996 15.1666H23.5C23.9602 15.1666 24.3333 15.5397 24.3333 16C24.3333 16.4602 23.9602 16.8333 23.5 16.8333H8.49996C8.03972 16.8333 7.66663 16.4602 7.66663 16ZM12.6666 21C12.6666 20.5397 13.0397 20.1666 13.5 20.1666H23.5C23.9602 20.1666 24.3333 20.5397 24.3333 21C24.3333 21.4602 23.9602 21.8333 23.5 21.8333H13.5C13.0397 21.8333 12.6666 21.4602 12.6666 21Z" fill="white"/>
<defs>
<linearGradient id="paint0_linear_2570_397" x1="16" y1="0" x2="16" y2="32" gradientUnits="userSpaceOnUse">
<stop stop-color="#7A7A7A"/>
<stop offset="1" stop-color="#98A8FF" stop-opacity="0.48"/>
</linearGradient>
</defs>
</svg>
