<svg width="1440" height="1926" viewBox="0 0 1440 1926" fill="none" xmlns="http://www.w3.org/2000/svg">
<g opacity="0.5">
<g opacity="0.2" clip-path="url(#clip0_2209_4498)">
<rect width="1984.23" height="1984.23" transform="translate(-115.324 -50.8051)" fill="#1A1A1A"/>
<path d="M1162.52 863.333L1172.07 869.063L1170.8 875.429L1149.15 867.79L1162.52 863.333Z" fill="#323432"/>
<path d="M1251.01 1601.17L1264.38 1613.91L1257.38 1620.91L1244.01 1608.81L1251.01 1601.17Z" fill="#323432"/>
<path d="M1260.56 1592.9L1272.65 1604.99L1265.02 1611.99L1253.56 1600.54L1260.56 1592.9Z" fill="#323432"/>
<path d="M1400.62 835.959L1413.98 840.415L1410.16 849.965L1397.43 844.872L1400.62 835.959Z" fill="#323432"/>
<path d="M117.831 1378.99L122.924 1394.91L110.828 1399.37L105.099 1383.45L117.831 1378.99Z" fill="#323432"/>
<path d="M1051.11 741.103L1061.3 748.106L1070.85 775.48L1068.94 787.576L1075.94 789.486L986.176 820.044L989.996 814.314L982.357 808.584L972.171 779.3L975.991 766.568L1051.11 741.103ZM1049.84 745.559L985.54 765.294L976.627 778.027L984.903 804.128L993.816 811.131L1058.75 790.759L1066.39 782.483L1058.75 752.562L1049.84 745.559Z" fill="#323432"/>
<path d="M1051.11 741.103L1061.3 748.106L1070.85 775.48L1068.94 787.576L1075.94 789.486L986.176 820.044L989.996 814.314L982.357 808.584L972.171 779.3L975.991 766.568L1051.11 741.103ZM1049.84 745.559L985.54 765.294L976.627 778.027L984.903 804.128L993.816 811.131L1058.75 790.759L1066.39 782.483L1058.75 752.562L1049.84 745.559Z" fill="#323432"/>
<path d="M1226.82 1492.95L1233.82 1494.86L1265.65 1560.43L1212.18 1542.6L1226.82 1492.95Z" fill="#323432"/>
<path d="M1406.98 817.497L1438.81 830.23V850.601L1433.08 864.607L1417.17 858.241L1402.52 893.891L1380.24 884.979L1406.98 817.497Z" fill="#323432"/>
<path d="M646.861 192.34L661.503 234.993L621.396 248.999L606.754 205.072L646.861 192.34Z" fill="#323432"/>
<path d="M1052.38 749.379L1063.84 781.847L990.633 807.311L979.811 774.207L1052.38 749.379Z" fill="#323432"/>
<path d="M1210.27 1544.51L1266.93 1563.61L1274.57 1575.71L1226.18 1619L1182.26 1602.45L1210.27 1544.51Z" fill="#323432"/>
<path d="M341.921 684.444L372.479 775.481L332.372 788.85L299.904 699.087L341.921 684.444Z" fill="#323432"/>
<path d="M1223.64 1490.4L1234.46 1494.86L1295.57 1610.09L1280.29 1646.37L1178.44 1604.36L1223.64 1490.4Z" fill="#323432"/>
<path d="M1400.62 835.959L1413.98 840.415L1410.16 849.965L1397.43 844.872L1400.62 835.959Z" fill="#323432"/>
<path d="M1406.98 817.497L1445.81 832.776L1433.08 864.607L1417.17 858.241L1402.52 893.891L1380.24 884.979L1406.98 817.497Z" fill="#323432"/>
<path d="M1131.96 1237.66L1116.68 1228.75M663.412 2195.14L656.409 2235.88L632.854 2279.81L636.037 2289.36M601.023 2325.01L619.485 2287.45L616.939 2278.53" stroke="#2B2B2B" stroke-width="7.98481"/>
<path d="M-1034.45 -409.264L-1007.07 -361.517L-996.248 -322.684M-1039.54 705.453L-1125.48 667.892M-125.993 449.533L-97.3452 531.656M154.755 -321.411V-290.853M-3.76242 181.517L103.826 208.891M136.93 212.074L113.375 210.801M241.972 224.17L252.794 225.443M-543.614 1925.85L-507.963 1877.46M-257.136 1318.51L-257.773 1310.88L-344.353 1192.46M-1096.83 1024.4L-1063.09 1086.15M-661.388 1746.32L-651.838 1741.23M-667.754 2063.36L-613.641 2188.77M-1213.33 1795.98L-1240.71 1773.06L-1227.34 1764.78M-1245.8 1561.07V1545.15L-1236.25 1531.14L-1199.97 1497.4M-1291 951.187L-1253.44 924.449M-1291 -305.495L-1133.12 -367.884M-574.171 2315.46L-582.447 2325.01M114.012 2309.09L64.9922 2325.01" stroke="#2B2B2B" stroke-width="7.98481"/>
<path d="M-1053.54 -445.551L-1034.45 -409.264M-618.734 201.889L-595.18 316.48M-1222.88 420.248L-1088.56 351.494M-987.972 550.118L-833.911 469.904M-922.401 638.608L-1081.55 569.217M-1054.82 520.834L-920.491 580.676M-1125.48 667.892L-1066.28 527.2M-961.871 706.089L-934.496 691.447L-1103.2 618.873M-1039.54 705.453L-1017.89 654.523M-626.374 416.429L-547.433 348.311M-602.182 469.268L-479.315 364.863M-350.719 350.857L-190.928 315.843M-280.691 484.547L-216.393 525.927M-323.344 521.47L-243.767 571.763M-260.956 -444.278L-257.773 -445.551M-243.131 -405.444L-234.854 -409.264M-780.435 -343.055L-769.613 -346.875M-134.906 -305.495L-133.632 -314.408M189.769 -334.143L179.583 -320.774M898.324 -315.044L907.873 -318.227M806.651 134.407L815.564 138.227L856.944 126.131M-766.43 1310.24L-765.793 1333.79M-704.678 2116.83L-716.137 2084.36M-199.204 469.268L-169.283 467.358M65.6288 -378.706L121.014 -382.526M-744.148 -41.299L-820.542 -30.4765M-213.846 -71.8567L-225.942 -73.7665M-89.7058 -118.966L-33.0469 -173.079L-24.7709 -195.997L-31.1371 -227.828M-1.21602 -262.842L20.4289 -241.197L31.8881 -240.56L154.118 -279.394M83.454 -96.6847L136.293 -113.237M1047.93 -132.972L1086.13 -136.792L1104.59 -22.8371M1292.39 157.325L1156.15 291.652M1315.94 667.892L1354.14 681.898M1298.12 710.546L1335.68 725.824M949.253 1972.96L1028.19 2006.7M930.155 2018.79L1009.09 2051.9M569.193 2118.74L621.395 2131.47M516.99 2215.51L590.201 2233.33M640.494 2028.34L692.696 2043.62M112.102 2118.11L169.397 2152.48M-52.1454 2079.27L155.392 2206.6M-213.846 2034.71L-127.903 1916.3M-196.021 2104.1L-189.655 2099.01L-110.714 1969.14M-316.978 2107.28L-388.279 2121.29M-365.998 2146.12L-327.164 2319.91M-520.059 2120.65L-436.662 2006.06M-544.887 2063.99L-479.315 1974.87M-577.354 2018.16L-521.969 1942.4M-286.42 2049.99L-178.196 1898.47M-297.243 1974.87L-265.412 1927.12M-64.8778 1398.73L24.2486 1494.22M80.9075 1326.79L-83.9763 1294.32M1.96699 1367.53L4.51348 1374.54L71.9949 1448.38M-74.427 1240.85L80.9075 1270.13M-64.2412 1186.1L89.1836 1214.75M-161.644 942.911L-182.015 1049.23M-224.669 1121.8L-145.728 1056.23M-190.928 1165.73L-76.3369 1068.96M-229.762 1775.61L-188.381 1901.66M-439.845 1340.16L-462.127 1280.32M-823.089 1217.93L-765.156 1175.28M-830.728 1171.46L-800.17 1344.62M-1291 1939.22L-1257.9 1965.95L-1238.8 2002.24M-1291 1433.11L-1262.35 1402.55M-1291 -167.349L-1259.81 -177.535M622.669 2311.64L652.59 2325.01M1414.62 -127.242L1443.27 -61.6708L1479.55 -46.392" stroke="#2B2B2B" stroke-width="7.98481"/>
<path d="M362.292 2285.54L448.235 2229.51L529.086 2080.55L622.032 1962.77L650.679 1930.3L661.502 1925.85L674.234 1926.48L779.913 1824.63" stroke="#2B2B2B" stroke-width="7.98481"/>
<path d="M-155.914 1209.65L-55.3286 1128.17L105.099 1160.63" stroke="#2B2B2B" stroke-width="7.98481"/>
<path d="M-99.2541 2165.22L-100.527 2158.21L54.8072 1905.48" stroke="#2B2B2B" stroke-width="7.98481"/>
<path d="M37.6172 1481.49L55.4425 1657.2L67.5382 1703.67" stroke="#2B2B2B" stroke-width="7.98481"/>
<path d="M-296.606 1028.85L121.014 1103.97" stroke="#2B2B2B" stroke-width="7.98481"/>
<path d="M1312.76 463.538L1187.35 829.593L1149.15 976.015M1140.24 1012.94L1098.86 1170.82" stroke="#2B2B2B" stroke-width="7.98481"/>
<path d="M1095.68 1193.1L992.543 1391.73M305.634 2213.6L660.229 1862.82L695.243 1829.72L750.629 1790.88L800.922 1738.68L896.414 1567.43L972.808 1413.37L977.265 1394.27" stroke="#2B2B2B" stroke-width="7.98481"/>
<path d="M-345.626 1004.03L-283.237 959.463L89.1837 882.432L1312.76 463.538L1345.23 455.899L1479.56 462.902M-802.08 1335.07L-766.43 1310.24L-369.817 1021.85M1382.15 459.719L1403.8 464.175L1479.56 467.358M1463 460.992V466.721" stroke="#2B2B2B" stroke-width="7.98481"/>
<path d="M98.0959 1865.37L97.4593 1873.01L112.738 1908.66L119.104 1911.21M199.318 2026.43L295.447 2201.5L358.472 2267.07L366.112 2307.82L376.298 2325.01M226.056 2075.45L236.878 2062.72M-34.957 1547.06L30.6145 1715.13L42.0736 1765.42" stroke="#2B2B2B" stroke-width="7.98481"/>
<path d="M385.211 2135.93L457.785 2209.78M225.42 1874.92L318.366 2067.81L364.202 2114.92" stroke="#2B2B2B" stroke-width="7.98481"/>
<path d="M69.4478 886.888L-19.042 1364.35" stroke="#2B2B2B" stroke-width="7.98481"/>
<path d="M711.794 2105.37L546.911 2059.54L442.505 1953.22L425.953 1920.75L324.095 1708.12" stroke="#2B2B2B" stroke-width="7.98481"/>
<path d="M-134.904 930.178L1.33172 707.999" stroke="#2B2B2B" stroke-width="7.98481"/>
<path d="M-148.275 2133.38L24.8844 1849.45" stroke="#2B2B2B" stroke-width="7.98481"/>
<path d="M-440.481 -96.0482L-425.202 -70.5835M-425.202 -70.5835L-498.413 -66.7638M-425.202 -70.5835L-295.969 -39.3893L-264.138 -20.2908L-239.947 -26.6569L-152.093 27.4555L-46.415 157.962L-17.1306 177.697L-3.76167 181.517M103.827 208.891L113.376 210.801M136.931 212.074L241.972 224.17M252.795 225.443L347.651 245.178L434.867 241.359L743.627 157.325L806.652 134.407L900.871 82.8412L1035.2 -3.73873L1284.75 -73.7666L1479.56 -154.617" stroke="#2B2B2B" stroke-width="7.98481"/>
<path d="M-439.844 477.544L-366.633 559.667L14.0642 792.669L66.2668 820.68" stroke="#2B2B2B" stroke-width="7.98481"/>
<path d="M543.092 2167.13L608.027 2183.68M273.803 1851.36L362.292 2032.8L486.433 2159.49" stroke="#2B2B2B" stroke-width="7.98481"/>
<path d="M-48.3258 1487.86L33.7978 1407.64M-941.499 1873.01L-886.114 1844.36L-661.388 1746.32L-663.934 1750.78L-731.416 1781.97L-1244.53 2004.79L-1291 2035.98" stroke="#2B2B2B" stroke-width="7.98481"/>
<path d="M-298.517 970.285L123.56 1051.77L130.563 1047.95" stroke="#2B2B2B" stroke-width="7.98481"/>
<path d="M1338.23 170.694L1241.46 487.73" stroke="#2B2B2B" stroke-width="7.98481"/>
<path d="M862.674 139.5L1100.77 423.431L1205.17 531.656L1347.78 587.679" stroke="#2B2B2B" stroke-width="7.98481"/>
<path d="M464.151 2056.99L514.444 2108.56M321.549 1827.81L402.399 1990.15L442.506 2036.62" stroke="#2B2B2B" stroke-width="7.98481"/>
<path d="M862.674 139.5L1093.13 71.3821" stroke="#2B2B2B" stroke-width="7.98481"/>
<path d="M1207.72 2009.88L1074.67 2325.01M1479.56 1375.81L1356.69 1685.84" stroke="#2B2B2B" stroke-width="7.98481"/>
<path d="M1479.56 1219.84L1303.21 1664.2M1156.15 1988.24L1014.83 2325.01" stroke="#2B2B2B" stroke-width="7.98481"/>
<path d="M1479.56 1067.69L1303.21 1515.23M1105.22 1965.95L953.073 2325.01" stroke="#2B2B2B" stroke-width="7.98481"/>
<path d="M1479.56 918.083L1301.94 1366.9L1247.19 1498.04M1053.66 1944.31L893.868 2325.01" stroke="#2B2B2B" stroke-width="7.98481"/>
<path d="M1479.56 765.295L1213.45 1436.93M1200.08 1473.85L1148.51 1601.81M974.718 1913.12L907.237 2069.72M856.944 2167.76L823.84 2240.97" stroke="#2B2B2B" stroke-width="7.98481"/>
<path d="M1457.91 670.439L1301.3 1065.78M1240.19 1184.83L1186.71 1320.42M1179.07 1375.81L1097.59 1580.8M917.423 1904.2L780.55 2221.24M729.621 2318L726.438 2325.01M791.372 2226.33L746.173 2325.01" stroke="#2B2B2B" stroke-width="7.98481"/>
<path d="M1412.07 633.515L1249.74 1044.77" stroke="#2B2B2B" stroke-width="7.98481"/>
<path d="M1313.4 -445.551L1361.78 -103.687M1334.41 -92.865L1401.25 131.861M1157.43 1328.7L1093.13 1440.75L1045.38 1560.43M866.493 1882.56L805.378 2026.43M769.727 2130.84L737.26 2201.5" stroke="#2B2B2B" stroke-width="7.98481"/>
<path d="M1387.88 -115.147L1421.62 6.44714M1399.34 -414.357L1422.26 -243.107" stroke="#2B2B2B" stroke-width="7.98481"/>
<path d="M1238.28 -417.54L1276.47 -152.707M1284.75 -73.7667L1339.5 114.035L1338.23 170.694" stroke="#2B2B2B" stroke-width="7.98481"/>
<path d="M1161.88 -406.717L1213.45 -53.3948M1230.64 -57.8511L1292.39 157.325" stroke="#2B2B2B" stroke-width="7.98481"/>
<path d="M1132.6 -202.363L1156.79 -37.4795M1176.53 -43.209L1248.46 199.979" stroke="#2B2B2B" stroke-width="7.98481"/>
<path d="M1085.49 -395.895L1114.14 -199.18M1123.69 -28.5666L1203.26 245.179" stroke="#2B2B2B" stroke-width="7.98481"/>
<path d="M1001.46 -445.551L1066.39 -12.6512L1228.73 540.569M1237.01 543.115L1261.83 613.78" stroke="#2B2B2B" stroke-width="7.98481"/>
<path d="M890.048 -358.971L888.139 -350.695L898.324 -315.044L1002.09 15.9965M890.048 -358.971L896.415 -353.241L909.147 -315.044L1012.28 10.267M890.048 -358.971L862.674 -445.551M1153.61 477.544L1220.45 671.712" stroke="#2B2B2B" stroke-width="7.98481"/>
<path d="M793.918 -433.455L786.915 -445.551M837.844 -304.222L936.52 9.63041L958.165 47.1908M1064.48 380.141L1202.63 788.213" stroke="#2B2B2B" stroke-width="7.98481"/>
<path d="M725.163 -445.551L742.352 -414.357M765.907 -345.602L786.915 -279.394M776.092 -261.568L781.185 -248.2L803.467 -236.104M833.388 -131.062L900.869 82.8413M965.168 261.731L1168.89 862.06L1178.43 863.97" stroke="#2B2B2B" stroke-width="7.98481"/>
<path d="M936.521 62.4694L998.909 277.646L1007.18 311.387" stroke="#2B2B2B" stroke-width="7.98481"/>
<path d="M689.513 -393.985L660.229 -445.551M711.794 -329.05L848.031 104.486L1149.15 976.015" stroke="#2B2B2B" stroke-width="7.98481"/>
<path d="M595.93 -445.551L637.31 -372.976M657.682 -311.861L797.737 130.588L802.83 135.681L1009.73 743.65M1064.48 902.167L1100.77 1011.03" stroke="#2B2B2B" stroke-width="7.98481"/>
<path d="M518.263 -335.416L456.511 -445.551M498.527 -260.932L636.673 179.607L641.766 185.337M650.679 182.79L952.435 1065.78M970.261 1059.41L1045.38 1268.86" stroke="#2B2B2B" stroke-width="7.98481"/>
<path d="M692.696 170.694L551.367 -278.121" stroke="#2B2B2B" stroke-width="7.98481"/>
<path d="M394.123 -445.551L454.602 -338.599L434.867 -281.94M445.689 -244.38L586.381 201.252M596.567 198.069L899.597 1084.88M919.332 1077.87L1016.73 1345.25" stroke="#2B2B2B" stroke-width="7.98481"/>
<path d="M392.214 -227.828L532.27 216.531M543.729 213.348L847.395 1103.97M869.677 1096.34L977.265 1394.27" stroke="#2B2B2B" stroke-width="7.98481"/>
<path d="M394.759 -325.867L329.825 -445.551M282.715 -304.222L290.354 -324.594M478.156 231.81L338.737 -210.639L227.966 -399.714M490.252 228.627L795.192 1123.07M818.746 1114.16L928.881 1417.19" stroke="#2B2B2B" stroke-width="7.98481"/>
<path d="M265.527 -445.551L330.462 -325.867M297.994 -281.304L262.98 -223.371M286.535 -194.087L423.408 242.632M434.867 241.359L741.716 1142.17M717.525 1151.08L830.843 1463.66M844.212 1457.3L896.414 1567.43" stroke="#2B2B2B" stroke-width="7.98481"/>
<path d="M892.594 1433.74L921.879 1496.77L930.155 1500.59M768.454 1132.62L879.862 1439.47" stroke="#2B2B2B" stroke-width="7.98481"/>
<path d="M688.241 1161.91L378.845 252.181L363.566 238.176L233.06 -177.535M667.869 1169.55L783.097 1487.22M795.829 1480.85L865.22 1624.73" stroke="#2B2B2B" stroke-width="7.98481"/>
<path d="M227.965 -399.714L201.864 -445.551M177.036 -193.45L255.977 -323.32M304.996 237.539L179.583 -159.71M315.819 240.086L635.4 1181.01M617.575 1187.37L725.163 1484.04L739.806 1507.59M747.445 1504.41L827.659 1672.47L834.661 1680.75" stroke="#2B2B2B" stroke-width="7.98481"/>
<path d="M131.837 -445.551L151.572 -409.9L156.665 -386.982L154.755 -327.777M127.381 -143.158L241.972 224.17M252.794 225.443L583.835 1200.1M567.92 1205.83L686.331 1533.69M699.063 1527.33L785.006 1707.49" stroke="#2B2B2B" stroke-width="7.98481"/>
<path d="M11.5166 -137.428L75.8149 -253.292M53.5333 -323.32L59.2629 -330.323L63.0826 -346.239L65.629 -378.706L49.7136 -445.551M73.9051 -125.969L182.13 216.531M190.406 217.804L531.633 1219.2M516.99 1224.3L636.674 1557.25M714.978 1749.5L800.922 1848.18M651.317 1550.24L738.533 1734.86" stroke="#2B2B2B" stroke-width="7.98481"/>
<path d="M21.0654 -110.054L88.5468 105.759" stroke="#2B2B2B" stroke-width="7.98481"/>
<path d="M-50.8721 -445.551L-1.21595 -262.842M121.651 210.801L88.547 105.76M129.291 211.438L453.329 1169.55M436.14 1175.91L538.635 1456.02L593.384 1577.62M602.934 1573.8L693.333 1762.87" stroke="#2B2B2B" stroke-width="7.98481"/>
<path d="M-133.632 -314.408L-132.995 -322.047L-189.018 -445.551M57.9898 196.796L-30.5 -87.772L-70.6068 -135.518M-134.905 -305.495L-79.5195 -127.879M168.761 500.462L98.7333 298.018L110.192 270.643V210.165M385.847 1193.1L464.788 1407V1426.1L543.729 1601.81M555.188 1596.72L646.224 1789.61" stroke="#2B2B2B" stroke-width="7.98481"/>
<path d="M19.1562 356.587L60.5363 477.544M-85.249 -76.3127L26.7956 280.193M69.4489 474.361L321.549 1216.02M334.918 1210.93L360.383 1280.95M382.664 1341.43L413.222 1424.19L413.859 1445.2L493.436 1626M611.21 1810.62L660.229 1862.82M506.805 1619.63L599.751 1816.99" stroke="#2B2B2B" stroke-width="7.98481"/>
<path d="M-206.207 -332.87L-204.934 -341.146L-251.407 -445.551M-261.593 -445.551L-192.202 -301.039M-67.4246 163.055L-1.85305 371.865M-139.999 -58.4876L-115.807 21.0895M-152.731 -99.2311L-216.393 -299.765M365.475 1473.21L443.779 1650.19M284.625 1228.12L366.748 1457.3M674.234 1926.48L753.811 1961.5M458.421 1643.19L542.454 1821.44L650.679 1930.3" stroke="#2B2B2B" stroke-width="7.98481"/>
<path d="M-27.9538 391.6L7.69675 495.369M-118.353 179.607L-64.8776 348.311M-325.254 -445.551L-248.223 -277.484M234.969 1245.94L313.273 1464.3L310.726 1485.95L393.487 1674.38M410.039 1667.38L496.619 1847.54L583.198 1938.58" stroke="#2B2B2B" stroke-width="7.98481"/>
<path d="M-394.646 -445.551L-297.88 -255.839L-292.787 -252.656L-281.328 -245.016L-225.942 -73.7665M-75.0638 425.978L-45.1428 513.831M-169.283 195.522L-94.1623 435.527M-201.751 -5.01188L-183.289 86.661M152.208 1155.54L167.487 1200.74L166.851 1217.93L209.504 1336.34M467.334 1895.93L544.365 1977.41M252.157 1492.31L343.194 1699.21" stroke="#2B2B2B" stroke-width="7.98481"/>
<path d="M-295.969 -39.3891L-310.611 -82.0425L-338.622 -171.169L-349.445 -194.087M-332.892 -207.456L-454.486 -445.551M125.472 1261.22L215.235 1506.32L217.145 1516.5L208.869 1531.15L292.902 1723.4" stroke="#2B2B2B" stroke-width="7.98481"/>
<path d="M-308.701 19.1796L-220.211 436.8M-514.328 -445.551L-367.906 -158.437M145.844 1474.49L171.945 1543.88M173.855 1548.97L162.396 1566.16L243.883 1746.96" stroke="#2B2B2B" stroke-width="7.98481"/>
<path d="M-1117.21 -285.123L-994.976 65.6525L-975.24 133.134M-982.243 305.021L-690.673 627.149L-599 744.286L-388.916 1036.49L-171.193 1335.07M-78.8839 1587.17L-60.4219 1605.63L-28.5911 1710.03L17.2454 1834.17L141.386 2068.45M243.881 2242.25L245.791 2260.71L280.168 2325.01" stroke="#2B2B2B" stroke-width="7.98481"/>
<path d="M-1126.75 98.1202L-1094.29 204.435M-162.916 1668.02L-147.637 1684.57L-50.8713 1975.5L-6.94471 2004.79M-332.256 1303.87L-478.678 1102.7L-585.63 955.643L-684.305 902.167M24.2495 2325.01L12.1538 2285.54" stroke="#2B2B2B" stroke-width="7.98481"/>
<path d="M806.651 1854.55L917.422 1904.2L961.349 1907.39L1053.66 1944.31L1479.55 2125.75M-113.261 2325.01L12.1528 2285.54L61.1723 2265.8" stroke="#2B2B2B" stroke-width="7.98481"/>
<path d="M192.953 2058.26L825.113 1684.57L834.662 1680.75L883.682 1708.76M-903.938 2325.01L-876.564 2312.91" stroke="#2B2B2B" stroke-width="7.98481"/>
<path d="M930.156 1500.59L982.995 1534.96L1356.69 1685.84M119.106 1911.21L182.131 1894.65L456.513 1764.15M-1040.81 2325.01L-988.608 2301.45" stroke="#2B2B2B" stroke-width="7.98481"/>
<path d="M98.0967 1865.37L163.032 1844.36L406.219 1727.86" stroke="#2B2B2B" stroke-width="7.98481"/>
<path d="M131.201 1717.67L213.324 1681.39M-264.138 1787.07L-28.59 1710.03M30.6154 1715.13L119.105 1687.12M-630.193 2007.33L-624.463 2005.42L-554.436 1918.21M-1232.43 2233.97L-1053.54 2154.39" stroke="#2B2B2B" stroke-width="7.98481"/>
<path d="M42.0737 1765.42L136.93 1733.59M-1225.43 2289.99L-1031.9 2204.05" stroke="#2B2B2B" stroke-width="7.98481"/>
<path d="M1147.24 1306.42L1479.56 1438.84" stroke="#2B2B2B" stroke-width="7.98481"/>
<path d="M109.555 1648.92L538.635 1456.02L1045.38 1268.86L1058.11 1266.31L1112.23 1294.32L1147.24 1306.42M-766.43 2067.81L-553.163 1835.45M-1080.92 2092.64L-928.767 2025.16M-1238.16 2177.95L-1075.19 2105.37" stroke="#2B2B2B" stroke-width="7.98481"/>
<path d="M215.234 1506.32L310.727 1471.94M-12.6745 1603.72L50.3506 1597.99L103.826 1592.26M-808.446 2034.07L-591.996 1799.16M-1244.53 2122.56L-1096.83 2056.35" stroke="#2B2B2B" stroke-width="7.98481"/>
<path d="M94.2771 1492.95L497.892 1344.62M519.537 1312.79L1062.57 1113.52L1479.56 1280.32M-849.826 2000.33L-635.923 1769.24M-1250.26 2067.81L-1119.75 2006.06" stroke="#2B2B2B" stroke-width="7.98481"/>
<path d="M87.9111 1437.56L278.896 1368.17M332.372 1359.9L432.958 1322.33M1185.44 1089.97L1329.31 1146.63" stroke="#2B2B2B" stroke-width="7.98481"/>
<path d="M183.403 1263.77L453.328 1169.55M80.9072 1326.79L141.386 1304.51M933.337 1009.76L1021.83 980.471M1214.09 951.824L1158.7 938.455" stroke="#2B2B2B" stroke-width="7.98481"/>
<path d="M1241.46 893.891L1479.55 988.747M-1291 1835.45L-1240.71 1773.06" stroke="#2B2B2B" stroke-width="7.98481"/>
<path d="M84.7265 1236.39L1142.78 876.066L1223.63 895.164L1241.46 893.891M-1106.38 1793.43L-585.631 1561.07" stroke="#2B2B2B" stroke-width="7.98481"/>
<path d="M1217.27 745.56L1269.47 763.385L1280.3 758.292L1479.56 837.232M879.226 849.965L974.719 817.497M121.016 1103.97L401.764 1011.67" stroke="#2B2B2B" stroke-width="7.98481"/>
<path d="M896.413 900.894L991.906 868.426M107.645 1151.72L152.208 1155.54L419.587 1064.5" stroke="#2B2B2B" stroke-width="7.98481"/>
<path d="M130.564 1047.95L1328.68 634.788H1368.78M-401.011 1291.78L-390.826 1319.15L-439.845 1340.16L-1254.71 1704.3" stroke="#2B2B2B" stroke-width="7.98481"/>
<path d="M-14.5842 914.9L94.2773 936.545L105.1 935.271L347.651 853.148M1351.6 627.785L1412.07 633.515L1479.56 636.061M823.84 690.81L920.606 657.07M-462.126 1280.32L-299.152 1159.36" stroke="#2B2B2B" stroke-width="7.98481"/>
<path d="M841.027 741.74L937.793 708.636M121.014 988.747L365.474 905.987M122.287 995.113L-178.833 939.728" stroke="#2B2B2B" stroke-width="7.98481"/>
<path d="M1345.23 572.4L1479.55 578.766" stroke="#2B2B2B" stroke-width="7.98481"/>
<path d="M66.2651 820.68L58.6257 827.047L14.0625 897.711M786.916 583.222L884.318 548.845M70.0848 830.866L311.363 747.469" stroke="#2B2B2B" stroke-width="7.98481"/>
<path d="M1479.56 523.38L1369.42 518.924" stroke="#2B2B2B" stroke-width="7.98481"/>
<path d="M35.7073 759.565L-45.7797 887.525L-60.4219 912.99M1175.25 357.86L1392.34 424.068M47.1664 779.937L1184.16 389.054M-812.267 1275.86L-739.056 1222.39M1401.89 403.06L1479.55 406.243" stroke="#2B2B2B" stroke-width="7.98481"/>
<path d="M751.264 477.544L847.394 444.44M1058.11 371.865L1168.89 334.305M1156.15 291.651L1403.16 367.409M17.2451 730.917L275.712 641.791M1416.53 347.674L1479.55 350.22" stroke="#2B2B2B" stroke-width="7.98481"/>
<path d="M1203.26 245.179L1422.9 313.297M-18.4052 683.808L1153.61 282.103M-652.476 1052.41L-607.276 1019.94L-472.313 921.266M1429.26 291.652L1479.55 293.562" stroke="#2B2B2B" stroke-width="7.98481"/>
<path d="M-57.2376 637.971L239.426 536.113M1248.46 199.979L1438.18 259.821M984.904 283.376L1140.24 236.266M714.979 372.502L811.745 339.398M-1012.16 1207.74L-969.51 1183.55" stroke="#2B2B2B" stroke-width="7.98481"/>
<path d="M1292.39 157.325L1454.09 206.345M-97.3452 592.135L900.234 248.998L1124.32 183.427M-1291 1293.69L-730.142 986.837" stroke="#2B2B2B" stroke-width="7.98481"/>
<path d="M-138.087 545.662L150.3 446.349M-1271.27 1181.64L-1164.95 1142.81L-1091.1 1102.7M1339.5 114.035L1472.55 154.142" stroke="#2B2B2B" stroke-width="7.98481"/>
<path d="M39.5273 416.429L100.006 395.42M678.691 265.55L769.727 233.719M1377.7 47.8273L1371.33 45.2808L1191.17 98.1201L1168.25 105.123L1163.79 110.852M1377.7 47.8273L1373.88 52.9202L1170.16 113.399L1163.79 110.852M1377.7 47.8273L1406.98 42.7344L1479.55 72.6554M1163.79 110.852L904.69 186.61M129.29 385.234L287.171 331.122" stroke="#2B2B2B" stroke-width="7.98481"/>
<path d="M-169.283 467.358L-75.0636 425.978L98.7329 298.018M-1291 1074.05L-1261.72 1062.59L-1172.59 998.296" stroke="#2B2B2B" stroke-width="7.98481"/>
<path d="M982.357 -48.3018L231.149 188.52" stroke="#2B2B2B" stroke-width="7.98481"/>
<path d="M-1233.07 942.274L-1227.98 934.635L-927.494 767.841M103.826 208.891L101.916 224.807L-110.714 382.051L-177.559 414.519M-1291 1014.85L-1204.42 955.643M1417.8 -12.0146L1479.55 12.8134" stroke="#2B2B2B" stroke-width="7.98481"/>
<path d="M-1168.77 517.014L-911.578 384.598M-193.474 299.928L-39.4131 251.545M-1291 566.034L-1244.53 547.572M1479.55 -210.639L1457.27 -218.915" stroke="#2B2B2B" stroke-width="7.98481"/>
<path d="M-1195.51 469.904L-950.412 342.581M-603.456 333.668L-595.18 316.48M-595.18 316.48L-204.933 234.356M-595.18 316.48L-612.368 322.846L-613.642 331.122M-210.663 208.891L-55.3284 159.235L-45.7792 148.413L1013.55 -187.084L1422.26 -243.107M-1268.72 498.552L-1291 508.101M1464.91 -274.301L1479.55 -268.571" stroke="#2B2B2B" stroke-width="7.98481"/>
<path d="M-223.396 155.416L-84.613 111.489M1335.68 -283.214L1415.89 -294.036M1472.55 -328.413L1479.55 -325.867" stroke="#2B2B2B" stroke-width="7.98481"/>
<path d="M-235.49 102.577L-119.626 66.2894M1026.92 -276.847L1177.8 -294.036M1174.62 -313.771L1408.25 -347.512" stroke="#2B2B2B" stroke-width="7.98481"/>
<path d="M-148.275 31.2753L776.092 -261.568M820.656 -269.845L846.12 -278.121M1467.46 -445.551L1479.55 -441.094" stroke="#2B2B2B" stroke-width="7.98481"/>
<path d="M1316.58 -428.999L1348.41 -434.092M1951.29 -445.551L1989.49 -432.818L2024.5 -438.548M1889.54 -430.272L1885.08 -413.083L1783.86 -445.551M1414.62 -127.242L1443.27 -61.6708L1480.19 -46.392M1608.79 -329.05L1555.95 -186.448M1339.5 114.036L1472.55 154.142M2330.08 544.389L2305.25 646.247M1974.21 715.002L2145.46 722.005M2017.5 773.571L2146.73 778.664M2419.84 566.034L2427.48 536.113M2578.36 334.305L2667.48 364.226M2675.76 311.387L2594.91 284.012M2328.17 49.1006L2302.7 129.314M2737.51 90.4807L2768.07 -46.392M3089.56 272.553L3059 268.097M3160.86 270.643L3094.02 252.181M3202.24 185.337L3183.78 177.697L3154.5 175.787M3262.08 271.917L3176.78 234.356M3283.73 222.26L3229.62 348.311M3353.76 194.249L3262.72 152.869M3375.4 145.23L3311.74 118.492M3353.12 46.5541L3299.01 13.45M3244.89 -58.4877L3291.37 -29.8399M3305.37 -355.151L3500.81 -308.678M3307.92 -131.699L3400.87 -281.304M3931.8 -322.684L3950.27 -283.85L3945.17 -279.394M3759.92 -149.524L3745.28 -180.082M3913.34 -46.392L3921.62 -49.5751L3982.1 -19.654M3982.1 -19.654L4033.03 -3.73863L4015.2 84.1145L4018.38 124.221M3982.1 -19.654L3959.82 85.3877L3948.36 104.486M3948.36 104.486L3971.27 140.773L3972.55 163.055L3966.82 177.697L3962.36 167.511V138.227L3966.18 132.497L4087.14 118.492M3948.36 104.486L3924.17 87.2976L3914.62 72.0188L3913.34 45.9175L3922.26 -6.92169L3920.35 -29.8399L3907.61 -61.0341L3908.89 -73.1299L3929.89 -118.966L3947.72 -201.09M3997.38 275.1L3853.5 263.64M3932.44 238.176L3875.78 213.984M3831.86 578.129L3784.75 558.394M3845.86 526.563L3805.75 509.375M3840.77 706.726L3825.49 819.407M3241.08 320.936L3157.68 284.012M3066.64 326.666L3080.65 330.485M2986.43 581.312L2908.12 561.577M2870.56 680.625L2894.76 613.78M2894.76 613.78L2917.67 523.38L2924.04 513.831L2932.95 512.558L3000.43 532.929L3002.34 541.205L2944.41 688.901L2937.41 696.54M2894.76 613.78L2966.69 631.605M2882.02 289.742L2904.94 456.535M2888.39 634.788L2755.34 600.411M3017.62 854.421L2946.32 948.64M2839.37 902.804L2813.27 950.55M2789.71 881.795L2767.43 922.539M2955.87 1091.88L2949.5 1111.61L2908.12 1181.01L2865.47 1266.95M2762.34 1268.22L2675.76 1393.64M2846.37 1324.88L2762.34 1448.38M2888.39 1354.8L2806.9 1473.85M2805.63 1294.32L2722.23 1416.55M2926.59 1378.36L2879.48 1459.84L2849.56 1502.5M2912.58 1503.77L2951.41 1438.2M2880.11 1627.91L2920.86 1538.15M2880.11 1627.91L2783.35 1571.89L2755.97 1569.98L2737.51 1590.99L2736.87 1617.72M2880.11 1627.91L2905.58 1648.92M3047.54 1523.51L2894.76 1433.11M2896.67 1289.23L2863.56 1336.98M3001.71 1238.94L2990.88 1255.49V1266.95L2995.98 1273.31L3092.74 1340.8M3123.3 1296.87L3055.82 1393M3143.04 1245.3L3112.48 1288.59M3284.36 1540.06L3253.17 1587.17M3263.36 1163.82L3249.35 1186.74M3237.26 1148.54L3300.92 1186.1L3305.37 1205.2L3299.01 1220.48L3344.84 1247.21M3061.55 1000.21L3062.19 1032.67M3253.81 976.015L3227.71 1026.94M3195.88 1019.94L3196.51 1082.33M3833.77 1336.98L3774.56 1431.83M3978.91 1291.14L3967.46 1308.97L3897.43 1476.4M4033.03 1317.88L3956.63 1501.86M3739.55 1462.39L3654.88 1412.73M3745.91 1573.8L3614.13 1501.22M3762.46 1524.14L3635.14 1454.75L3590.58 1422.28M3528.83 1291.78L3627.5 1342.71M3451.16 1314.69L3445.43 1326.79L3428.88 1343.98M3489.36 1378.99L3448.61 1360.53L3388.13 1309.6L3328.29 1277.77M3482.99 1250.4L3473.44 1238.94L3448.61 1226.21L3427.6 1229.39L3416.78 1239.57L3380.49 1306.42M3351.21 1349.71L3391.95 1385.36L3405.96 1414.64L3399.59 1436.29L3369.03 1500.59M3369.03 1500.59L3424.42 1522.87M3369.03 1500.59L3346.75 1505.04L3329.56 1515.87L3305.37 1553.43M3367.76 1445.84L3390.04 1455.39M3456.25 1767.33L3481.08 1725.31L3490.63 1724.68L3607.77 1794.7L3644.69 1784.52M3661.88 1840.54L3609.68 1856.46L3587.39 1870.46L3574.66 1889.56L3547.92 1960.22M3720.45 1728.5L3677.16 1712.58L3551.11 1641.92M3840.77 1626.64L3791.11 1608.18M3945.17 1620.91L3854.77 1587.8M3984.01 1667.38L3935.62 1650.19M3910.8 1717.67L3885.97 1708.76L3871.96 1697.94L3867.51 1684.57L3871.96 1654.65L3835.04 1643.83M3710.9 1868.55L3710.26 1879.37L3720.45 1909.3L3715.35 1916.93L3686.07 1920.12M3728.09 2035.35L3708.99 2042.35L3687.98 2041.07M3821.03 1943.04L3767.56 1946.22M3900.61 1944.31L3874.51 1944.95M3932.44 2028.98L3935.62 2116.2L3942.63 2135.93M3913.34 2179.22L3861.78 2184.95L3762.46 2179.86M3823.58 2104.1L3822.31 2133.38L3812.76 2155.03L3810.21 2182.4M3881.51 2105.37L3746.55 2102.83M3683.52 2100.92L3694.98 2095.19L3745.91 2099.64M3686.71 2213.6L3675.88 2246.07L3670.79 2251.16H3663.79L3610.31 2234.61L3567.02 2193.23L3606.49 2156.3M3635.14 2061.45L3610.95 2060.17L3593.12 2065.27M3593.12 2065.27L3578.48 2076.09L3561.93 2099.64M3593.12 2065.27L3560.66 2035.35L3454.98 1963.41M3677.16 1891.47L3624.32 1910.57L3577.21 2048.71M3596.31 1993.97L3503.36 1929.67L3490.63 1914.39M3393.86 2160.12L3326.38 2249.89L3300.28 2263.25M3349.3 2116.2L3316.83 2146.12L3269.09 2161.4M3221.98 2120.65L3165.95 2085M3246.17 2091.37L3166.59 2196.41M3048.82 2118.11L3099.11 2188.13L3092.74 2198.96M3039.9 2128.29L3067.28 2095.82M3223.25 1994.6L3151.95 2107.28L3125.85 2127.65M3176.78 1967.23L3093.38 2102.19M3130.3 1940.49L3047.54 2071.63M3309.83 1748.23L3253.17 1725.95M3002.34 1757.14L3059 1622.82L3066.01 1590.99M2978.79 1543.24L2941.87 1618.36L2929.77 1633L2905.58 1648.92M2905.58 1648.92L2907.49 1670.56L2899.85 1689.03M2868.65 1682.02L2742.6 1624.73M2729.87 1623.45L2715.87 1644.46L2718.41 1651.47M2715.23 1657.83L2738.15 1627.27M2814.54 1892.11L2815.18 1902.29L2808.18 1920.75L2796.08 1922.03L2787.17 1929.03L2754.7 1990.78L2727.96 2052.53M3103.57 1982.51L3050.09 1948.77L3013.17 1934.76L2979.43 1932.85L2923.4 1939.85M2972.42 2017.52L2949.5 2046.17M3076.83 2025.16L3030.35 1992.69L3002.98 1981.87H2978.15L2953.96 1998.42M2915.76 2237.15L2822.18 2183.68M2465.68 2176.04L2430.03 2229.51M2349.17 2158.21L2247.95 2085.64M2318.62 2211.05L2279.78 2185.59L2254.96 2186.86M2470.77 1728.5L2489.23 1687.75M2541.43 1703.67L2491.78 1806.16L2456.13 1857.09M2638.2 1750.78L2580.9 1869.19L2543.98 1920.12M2589.18 1727.22L2536.34 1836.72L2500.05 1888.92M2670.03 1583.35L2688.49 1567.43M2646.47 1471.3L2612.73 1531.14M2496.87 1408.28L2466.31 1395.55L2338.99 1399.37M2493.69 1231.3L2486.68 1287.32M2385.46 1506.95L2340.26 1622.18M2601.91 1261.22L2481.59 1226.21M2441.48 977.925L2426.21 1034.58M2316.07 942.274L2300.16 998.296M1747.57 1973.59L1840.52 2004.79M1767.94 1923.94L1855.8 1953.22M1683.27 2127.65L1792.77 2172.85M2261.32 2274.08L2205.94 2269.62M1316.58 667.892L1354.14 681.898M1316.58 574.946L1347.78 587.679M1316.58 221.624L1438.18 259.821M2328.17 2324.37V2325.01M2338.35 2298.9L2323.07 2320.55M2423.66 2325.01L2398.83 2306.54L2385.46 2325.01M2510.24 2209.78L2456.13 2284.26M2553.53 2241.61L2493.05 2325.01M2596.82 2273.44L2559.26 2325.01M3054.55 2208.51L2990.88 2325.01M3141.76 2293.81L3071.1 2314.82L3012.53 2283.63M3200.33 2302.09L3148.77 2318M3260.81 2319.28L3248.08 2325.01M3291.37 2235.88L3240.44 2251.16M3827.4 2280.44L3822.94 2251.16L3831.86 2239.06L3882.15 2240.97L3887.88 2249.89L3889.79 2301.45L3885.33 2309.09L3837.59 2312.27L3831.22 2305.27L3827.4 2280.44ZM3827.4 2280.44L3765.01 2281.72M4087.14 2083.09L4070.59 2090.73L4052.13 2092.64L3934.35 2074.18M4050.22 1918.21L4058.49 1827.81L4055.31 1778.15L4054.67 1755.87M4061.67 1468.76L4042.58 1448.38M4087.14 483.273H4085.87M4071.86 118.492L4070.59 79.6582L4087.14 -0.555569M4083.96 -388.255L4087.14 -387.619" stroke="#2B2B2B" stroke-width="7.98481"/>
<path d="M1578.23 465.448L1577.59 471.814M1577.59 471.814L1403.8 464.175L1382.15 459.719M1577.59 471.814L1860.89 483.273L1867.89 480.09M1867.89 480.09L1860.89 476.271L1809.96 473.724M1867.89 480.09L2137.82 492.186M1809.96 473.724L1345.23 455.899L1316.58 462.902M1809.96 473.724V481.364M1694.1 469.904L1693.46 476.271M1463 460.992V466.721" stroke="#2B2B2B" stroke-width="7.98481"/>
<path d="M1497.38 -90.3185L1408.89 134.407" stroke="#2B2B2B" stroke-width="7.98481"/>
<path d="M2075.43 776.117L1666.08 1812.53M1436.9 2325.01L1536.85 2089.46" stroke="#2B2B2B" stroke-width="7.98481"/>
<path d="M2039.14 718.185L1615.79 1786.43M1463.64 2119.38L1377.06 2325.01" stroke="#2B2B2B" stroke-width="7.98481"/>
<path d="M2107.9 -43.8455L1991.4 313.933L1981.21 543.752L1978.66 599.138L1972.3 736.647L1562.32 1767.97M1316.58 2324.37L1412.07 2097.1" stroke="#2B2B2B" stroke-width="7.98481"/>
<path d="M1918.82 655.16L1915.64 729.644L1512.02 1747.59M1361.15 2075.45L1316.58 2181.13M1400.62 2004.15L1367.51 2078" stroke="#2B2B2B" stroke-width="7.98481"/>
<path d="M2025.77 -445.551L2024.5 -438.548M2023.23 -428.999L2011.77 -391.438M1802.32 650.704L1799.14 720.731L1408.25 1706.85" stroke="#2B2B2B" stroke-width="7.98481"/>
<path d="M1899.72 -118.329L1760.3 304.384L1743.11 709.909L1356.69 1685.84" stroke="#2B2B2B" stroke-width="7.98481"/>
<path d="M1762.85 119.128L1737.39 194.886M1685.82 645.611L1682.64 704.816L1664.81 752.562L1316.58 1630.46" stroke="#2B2B2B" stroke-width="7.98481"/>
<path d="M1893.99 -445.551L1889.54 -430.272M1885.08 -413.083L1836.06 -260.932L1825.24 -246.926L1676.91 199.342M1654.63 267.46L1643.8 299.928L1627.25 693.357L1316.58 1481.49" stroke="#2B2B2B" stroke-width="7.98481"/>
<path d="M1795.32 -445.551L1743.75 -286.397M1766.03 -275.574L1621.52 75.8385M1572.5 641.154L1569.32 687.627L1561.04 711.819L1316.58 1329.97" stroke="#2B2B2B" stroke-width="7.98481"/>
<path d="M1713.19 -288.307L1580.14 35.0949M1528.58 295.471L1513.3 679.988L1316.58 1176.55" stroke="#2B2B2B" stroke-width="7.98481"/>
<path d="M1536.21 -445.551L1524.12 -366.61M1457.91 670.439L1316.58 1026.94" stroke="#2B2B2B" stroke-width="7.98481"/>
<path d="M1412.07 633.515L1316.58 875.43" stroke="#2B2B2B" stroke-width="7.98481"/>
<path d="M1334.41 -92.8652L1401.25 131.861M1316.58 -424.543L1361.78 -103.688" stroke="#2B2B2B" stroke-width="7.98481"/>
<path d="M1399.34 -414.357L1422.26 -243.107M1387.88 -115.147L1421.62 6.44714" stroke="#2B2B2B" stroke-width="7.98481"/>
<path d="M1870.44 1894.65L2170.92 2014.97M2173.47 2007.97L1875.53 1890.2M1316.58 1669.93L1356.69 1685.84" stroke="#2B2B2B" stroke-width="7.98481"/>
<path d="M1316.58 1373.9L2195.75 1725.31" stroke="#2B2B2B" stroke-width="7.98481"/>
<path d="M2340.26 1622.18L2242.22 1582.07M2177.92 1557.88L2133.36 1540.69L2029.59 1499.95L1316.58 1215.38" stroke="#2B2B2B" stroke-width="7.98481"/>
<path d="M1316.58 923.812L2162.65 1260.58" stroke="#2B2B2B" stroke-width="7.98481"/>
<path d="M1316.58 772.934L2157.55 1105.88M2329.44 1109.7L2223.76 1113.52" stroke="#2B2B2B" stroke-width="7.98481"/>
<path d="M2143.55 664.073L1412.07 633.515L1351.6 627.785" stroke="#2B2B2B" stroke-width="7.98481"/>
<path d="M1345.23 572.4L2141.64 606.14" stroke="#2B2B2B" stroke-width="7.98481"/>
<path d="M1369.42 518.924L1981.21 543.752L2139.09 550.118" stroke="#2B2B2B" stroke-width="7.98481"/>
<path d="M1401.89 403.06L2135.91 432.981M1316.58 401.15L1392.34 424.068" stroke="#2B2B2B" stroke-width="7.98481"/>
<path d="M1416.53 347.674L2133.36 376.958M1316.58 340.671L1403.16 367.409" stroke="#2B2B2B" stroke-width="7.98481"/>
<path d="M1429.26 291.652L2131.45 319.663M1316.58 280.193L1422.9 313.297" stroke="#2B2B2B" stroke-width="7.98481"/>
<path d="M1692.19 247.088L2014.31 259.184L2130.82 298.654M1316.58 164.965L1454.09 206.345" stroke="#2B2B2B" stroke-width="7.98481"/>
<path d="M1709.37 194.249L1911.82 201.889M1377.7 47.8273L1371.33 45.2808L1316.58 61.1963M1377.7 47.8273L1373.88 52.9202L1316.58 70.1089M1377.7 47.8273L1406.98 42.7344L1666.72 147.776" stroke="#2B2B2B" stroke-width="7.98481"/>
<path d="M1738.02 110.852L2128.9 241.359M1517.75 38.2781L1673.09 95.5736M1417.8 -12.0146L1520.94 29.3655M2301.43 298.654L2659.84 418.975" stroke="#2B2B2B" stroke-width="7.98481"/>
<path d="M1715.1 -67.4003L2102.8 62.4695M2684.04 257.274L2302.7 129.314M1316.58 -159.073L1352.87 -164.166M1351.6 -176.898L1402.53 -183.901L1411.44 -181.355" stroke="#2B2B2B" stroke-width="7.98481"/>
<path d="M1227.46 1461.75L1344.59 1678.84L1479.56 1734.23" stroke="#2B2B2B" stroke-width="17.5255"/>
<path d="M-94.7988 1349.07L82.8173 1380.27L1100.77 1011.03L1191.8 1020.58L1479.55 1139.63" stroke="#2B2B2B" stroke-width="17.5255"/>
<path d="M1123.69 1256.76L1179.07 1375.81L1227.46 1461.75" stroke="#2B2B2B" stroke-width="17.5255"/>
<path d="M126.744 2325.01L199.319 2026.43L190.406 1939.85L169.398 1841.18L153.482 1781.97L112.102 1669.29L82.8177 1380.27L80.9079 1270.13L84.7276 1236.39L128.018 1078.51L131.201 1053.68L121.015 988.747L79.6346 855.058L47.1672 779.937L1.33076 707.999L-164.826 513.194L-177.559 414.519" stroke="#2B2B2B" stroke-width="17.5255"/>
<path d="M1327.4 618.236L1479.56 678.715" stroke="#2B2B2B" stroke-width="17.5255"/>
<path d="M87.9107 1437.56L71.9952 1448.38L-78.883 1587.17L-206.206 1710.03L-335.44 1880.65L-346.262 1912.48L-348.809 1955.13" stroke="#2B2B2B" stroke-width="17.5255"/>
<path d="M1479.56 1585.89L1217.91 1480.85L992.543 1391.73L977.265 1394.27L155.392 1788.98L-348.809 1955.13" stroke="#2B2B2B" stroke-width="17.5255"/>
<path d="M1316.58 1626.64L1344.59 1678.84L1562.32 1767.97" stroke="#2B2B2B" stroke-width="17.5255"/>
<path d="M1316.58 1072.14L1899.09 1312.79L2058.88 1426.1" stroke="#2B2B2B" stroke-width="17.5255"/>
<path d="M1327.4 618.236L2212.94 970.922" stroke="#2B2B2B" stroke-width="17.5255"/>
<path d="M1316.58 1520.32L2184.29 1866.01" stroke="#2B2B2B" stroke-width="17.5255"/>
<path d="M890.685 1711.94L883.682 1708.76M806.652 1854.55L800.922 1848.18M761.452 1964.04L753.812 1961.5M740.443 1999.7L746.81 2002.24M616.94 2278.53L612.483 2286.81" stroke="#2B2B2B" stroke-width="23.3131"/>
<path d="M1340.77 584.496L1269.47 763.385L1240.82 848.692L1161.88 1153.63L1123.69 1256.76" stroke="#2B2B2B" stroke-width="23.3131"/>
<path d="M1123.69 1256.76L1023.74 1433.11L956.893 1570.62L883.682 1708.76L800.922 1848.18L746.173 1983.14L685.694 2154.39L616.939 2278.53M612.483 2286.81L591.475 2325.01M615.029 2325.01L692.697 2180.49L706.066 2148.66L748.719 1996.51L817.474 1829.72L890.685 1711.94L982.994 1534.96L1017.37 1457.93L1128.14 1266.31L1168.89 1156.18L1236.37 894.528L1263.11 806.675L1353.51 573.673L1382.79 469.904L1382.15 459.719M1392.34 424.068L1396.16 421.522L1416.53 347.674V334.942M1416.53 334.942L1479.56 135.681M1416.53 334.942L1412.07 338.125L1406.34 355.313L1390.43 419.612L1391.7 426.615L1340.77 584.496" stroke="#2B2B2B" stroke-width="23.3131"/>
<path d="M524.63 -445.551L561.554 -379.979L582.562 -355.788L604.844 -295.309M604.844 -295.309L611.846 -259.659L743.626 157.325L1108.41 1230.02L1123.69 1256.76L765.271 202.525L610.573 -288.943L604.844 -295.309ZM578.106 -360.244L530.359 -445.551" stroke="#2B2B2B" stroke-width="23.3131"/>
<path d="M1674.36 -445.551L1659.72 -308.678L1466.19 171.968L1416.53 334.942M1416.53 334.942L1412.07 338.125L1406.35 355.313L1390.43 419.612L1391.7 426.614L1340.77 584.495M1416.53 334.942V347.674L1396.16 421.522L1392.34 424.068M1316.58 665.346L1353.51 573.673L1382.79 469.904L1382.15 459.718" stroke="#2B2B2B" stroke-width="23.3131"/>
<path d="M1131.96 1237.66L1116.68 1228.75M663.412 2195.14L656.409 2235.88L632.854 2279.81L636.037 2289.36M601.023 2325.01L619.485 2287.45L616.939 2278.53" stroke="#454545" stroke-width="5.34826"/>
<path d="M-1034.45 -409.264L-1007.07 -361.517L-996.248 -322.684M-1039.54 705.453L-1125.48 667.892M-125.993 449.533L-97.3452 531.656M154.755 -321.411V-290.853M-3.76242 181.517L103.826 208.891M136.93 212.074L113.375 210.801M241.972 224.17L252.794 225.443M-543.614 1925.85L-507.963 1877.46M-257.136 1318.51L-257.773 1310.88L-344.353 1192.46M-1096.83 1024.4L-1063.09 1086.15M-661.388 1746.32L-651.838 1741.23M-667.754 2063.36L-613.641 2188.77M-1213.33 1795.98L-1240.71 1773.06L-1227.34 1764.78M-1245.8 1561.07V1545.15L-1236.25 1531.14L-1199.97 1497.4M-1291 951.187L-1253.44 924.449M-1291 -305.495L-1133.12 -367.884M-574.171 2315.46L-582.447 2325.01M114.012 2309.09L64.9922 2325.01" stroke="#454545" stroke-width="5.34826"/>
<path d="M-1053.54 -445.551L-1034.45 -409.264M-618.734 201.889L-595.18 316.48M-1222.88 420.248L-1088.56 351.494M-987.972 550.118L-833.911 469.904M-922.401 638.608L-1081.55 569.217M-1054.82 520.834L-920.491 580.676M-1125.48 667.892L-1066.28 527.2M-961.871 706.089L-934.496 691.447L-1103.2 618.873M-1039.54 705.453L-1017.89 654.523M-626.374 416.429L-547.433 348.311M-602.182 469.268L-479.315 364.863M-350.719 350.857L-190.928 315.843M-280.691 484.547L-216.393 525.927M-323.344 521.47L-243.767 571.763M-260.956 -444.278L-257.773 -445.551M-243.131 -405.444L-234.854 -409.264M-780.435 -343.055L-769.613 -346.875M-134.906 -305.495L-133.632 -314.408M189.769 -334.143L179.583 -320.774M898.324 -315.044L907.873 -318.227M806.651 134.407L815.564 138.227L856.944 126.131M-766.43 1310.24L-765.793 1333.79M-704.678 2116.83L-716.137 2084.36M-199.204 469.268L-169.283 467.358M65.6288 -378.706L121.014 -382.526M-744.148 -41.299L-820.542 -30.4765M-213.846 -71.8567L-225.942 -73.7665M-89.7058 -118.966L-33.0469 -173.079L-24.7709 -195.997L-31.1371 -227.828M-1.21602 -262.842L20.4289 -241.197L31.8881 -240.56L154.118 -279.394M83.454 -96.6847L136.293 -113.237M1047.93 -132.972L1086.13 -136.792L1104.59 -22.8371M1292.39 157.325L1156.15 291.652M1315.94 667.892L1354.14 681.898M1298.12 710.546L1335.68 725.824M949.253 1972.96L1028.19 2006.7M930.155 2018.79L1009.09 2051.9M569.193 2118.74L621.395 2131.47M516.99 2215.51L590.201 2233.33M640.494 2028.34L692.696 2043.62M112.102 2118.11L169.397 2152.48M-52.1454 2079.27L155.392 2206.6M-213.846 2034.71L-127.903 1916.3M-196.021 2104.1L-189.655 2099.01L-110.714 1969.14M-316.978 2107.28L-388.279 2121.29M-365.998 2146.12L-327.164 2319.91M-520.059 2120.65L-436.662 2006.06M-544.887 2063.99L-479.315 1974.87M-577.354 2018.16L-521.969 1942.4M-286.42 2049.99L-178.196 1898.47M-297.243 1974.87L-265.412 1927.12M-64.8778 1398.73L24.2486 1494.22M80.9075 1326.79L-83.9763 1294.32M1.96699 1367.53L4.51348 1374.54L71.9949 1448.38M-74.427 1240.85L80.9075 1270.13M-64.2412 1186.1L89.1836 1214.75M-161.644 942.911L-182.015 1049.23M-224.669 1121.8L-145.728 1056.23M-190.928 1165.73L-76.3369 1068.96M-229.762 1775.61L-188.381 1901.66M-439.845 1340.16L-462.127 1280.32M-823.089 1217.93L-765.156 1175.28M-830.728 1171.46L-800.17 1344.62M-1291 1939.22L-1257.9 1965.95L-1238.8 2002.24M-1291 1433.11L-1262.35 1402.55M-1291 -167.349L-1259.81 -177.535M622.669 2311.64L652.59 2325.01M1414.62 -127.242L1443.27 -61.6708L1479.55 -46.392" stroke="#454545" stroke-width="5.34826"/>
<path d="M362.292 2285.54L448.235 2229.51L529.086 2080.55L622.032 1962.77L650.679 1930.3L661.502 1925.85L674.234 1926.48L779.913 1824.63" stroke="#454545" stroke-width="5.34826"/>
<path d="M-155.914 1209.65L-55.3286 1128.17L105.099 1160.63" stroke="#454545" stroke-width="5.34826"/>
<path d="M-99.2541 2165.22L-100.527 2158.21L54.8072 1905.48" stroke="#454545" stroke-width="5.34826"/>
<path d="M37.6172 1481.49L55.4425 1657.2L67.5382 1703.67" stroke="#454545" stroke-width="5.34826"/>
<path d="M-296.606 1028.85L121.014 1103.97" stroke="#454545" stroke-width="5.34826"/>
<path d="M1312.76 463.538L1187.35 829.593L1149.15 976.015M1140.24 1012.94L1098.86 1170.82" stroke="#454545" stroke-width="5.34826"/>
<path d="M1095.68 1193.1L992.543 1391.73M305.634 2213.6L660.229 1862.82L695.243 1829.72L750.629 1790.88L800.922 1738.68L896.414 1567.43L972.808 1413.37L977.265 1394.27" stroke="#454545" stroke-width="5.34826"/>
<path d="M-345.626 1004.03L-283.237 959.463L89.1837 882.432L1312.76 463.538L1345.23 455.899L1479.56 462.902M-802.08 1335.07L-766.43 1310.24L-369.817 1021.85M1382.15 459.719L1403.8 464.175L1479.56 467.358M1463 460.992V466.721" stroke="#454545" stroke-width="5.34826"/>
<path d="M98.0959 1865.37L97.4593 1873.01L112.738 1908.66L119.104 1911.21M199.318 2026.43L295.447 2201.5L358.472 2267.07L366.112 2307.82L376.298 2325.01M226.056 2075.45L236.878 2062.72M-34.957 1547.06L30.6145 1715.13L42.0736 1765.42" stroke="#454545" stroke-width="5.34826"/>
<path d="M385.211 2135.93L457.785 2209.78M225.42 1874.92L318.366 2067.81L364.202 2114.92" stroke="#454545" stroke-width="5.34826"/>
<path d="M69.4478 886.888L-19.042 1364.35" stroke="#454545" stroke-width="5.34826"/>
<path d="M711.794 2105.37L546.911 2059.54L442.505 1953.22L425.953 1920.75L324.095 1708.12" stroke="#454545" stroke-width="5.34826"/>
<path d="M-134.904 930.178L1.33172 707.999" stroke="#454545" stroke-width="5.34826"/>
<path d="M-148.275 2133.38L24.8844 1849.45" stroke="#454545" stroke-width="5.34826"/>
<path d="M-440.481 -96.0482L-425.202 -70.5835M-425.202 -70.5835L-498.413 -66.7638M-425.202 -70.5835L-295.969 -39.3893L-264.138 -20.2908L-239.947 -26.6569L-152.093 27.4555L-46.415 157.962L-17.1306 177.697L-3.76167 181.517M103.827 208.891L113.376 210.801M136.931 212.074L241.972 224.17M252.795 225.443L347.651 245.178L434.867 241.359L743.627 157.325L806.652 134.407L900.871 82.8412L1035.2 -3.73873L1284.75 -73.7666L1479.56 -154.617" stroke="#454545" stroke-width="5.34826"/>
<path d="M-439.844 477.544L-366.633 559.667L14.0642 792.669L66.2668 820.68" stroke="#454545" stroke-width="5.34826"/>
<path d="M543.092 2167.13L608.027 2183.68M273.803 1851.36L362.292 2032.8L486.433 2159.49" stroke="#454545" stroke-width="5.34826"/>
<path d="M-48.3258 1487.86L33.7978 1407.64M-941.499 1873.01L-886.114 1844.36L-661.388 1746.32L-663.934 1750.78L-731.416 1781.97L-1244.53 2004.79L-1291 2035.98" stroke="#454545" stroke-width="5.34826"/>
<path d="M-298.517 970.285L123.56 1051.77L130.563 1047.95" stroke="#454545" stroke-width="5.34826"/>
<path d="M1338.23 170.694L1241.46 487.73" stroke="#454545" stroke-width="5.34826"/>
<path d="M862.674 139.5L1100.77 423.431L1205.17 531.656L1347.78 587.679" stroke="#454545" stroke-width="5.34826"/>
<path d="M464.151 2056.99L514.444 2108.56M321.549 1827.81L402.399 1990.15L442.506 2036.62" stroke="#454545" stroke-width="5.34826"/>
<path d="M862.674 139.5L1093.13 71.3821" stroke="#454545" stroke-width="5.34826"/>
<path d="M1207.72 2009.88L1074.67 2325.01M1479.56 1375.81L1356.69 1685.84" stroke="#454545" stroke-width="5.34826"/>
<path d="M1479.56 1219.84L1303.21 1664.2M1156.15 1988.24L1014.83 2325.01" stroke="#454545" stroke-width="5.34826"/>
<path d="M1479.56 1067.69L1303.21 1515.23M1105.22 1965.95L953.073 2325.01" stroke="#454545" stroke-width="5.34826"/>
<path d="M1479.56 918.083L1301.94 1366.9L1247.19 1498.04M1053.66 1944.31L893.868 2325.01" stroke="#454545" stroke-width="5.34826"/>
<path d="M1479.56 765.295L1213.45 1436.93M1200.08 1473.85L1148.51 1601.81M974.718 1913.12L907.237 2069.72M856.944 2167.76L823.84 2240.97" stroke="#454545" stroke-width="5.34826"/>
<path d="M1457.91 670.439L1301.3 1065.78M1240.19 1184.83L1186.71 1320.42M1179.07 1375.81L1097.59 1580.8M917.423 1904.2L780.55 2221.24M729.621 2318L726.438 2325.01M791.372 2226.33L746.173 2325.01" stroke="#454545" stroke-width="5.34826"/>
<path d="M1412.07 633.515L1249.74 1044.77" stroke="#454545" stroke-width="5.34826"/>
<path d="M1313.4 -445.551L1361.78 -103.687M1334.41 -92.865L1401.25 131.861M1157.43 1328.7L1093.13 1440.75L1045.38 1560.43M866.493 1882.56L805.378 2026.43M769.727 2130.84L737.26 2201.5" stroke="#454545" stroke-width="5.34826"/>
<path d="M1387.88 -115.147L1421.62 6.44714M1399.34 -414.357L1422.26 -243.107" stroke="#454545" stroke-width="5.34826"/>
<path d="M1238.28 -417.54L1276.47 -152.707M1284.75 -73.7667L1339.5 114.035L1338.23 170.694" stroke="#454545" stroke-width="5.34826"/>
<path d="M1161.88 -406.717L1213.45 -53.3948M1230.64 -57.8511L1292.39 157.325" stroke="#454545" stroke-width="5.34826"/>
<path d="M1132.6 -202.363L1156.79 -37.4795M1176.53 -43.209L1248.46 199.979" stroke="#454545" stroke-width="5.34826"/>
<path d="M1085.49 -395.895L1114.14 -199.18M1123.69 -28.5666L1203.26 245.179" stroke="#454545" stroke-width="5.34826"/>
<path d="M1001.46 -445.551L1066.39 -12.6512L1228.73 540.569M1237.01 543.115L1261.83 613.78" stroke="#454545" stroke-width="5.34826"/>
<path d="M890.048 -358.971L888.139 -350.695L898.324 -315.044L1002.09 15.9965M890.048 -358.971L896.415 -353.241L909.147 -315.044L1012.28 10.267M890.048 -358.971L862.674 -445.551M1153.61 477.544L1220.45 671.712" stroke="#454545" stroke-width="5.34826"/>
<path d="M793.918 -433.455L786.915 -445.551M837.844 -304.222L936.52 9.63041L958.165 47.1908M1064.48 380.141L1202.63 788.213" stroke="#454545" stroke-width="5.34826"/>
<path d="M725.163 -445.551L742.352 -414.357M765.907 -345.602L786.915 -279.394M776.092 -261.568L781.185 -248.2L803.467 -236.104M833.388 -131.062L900.869 82.8413M965.168 261.731L1168.89 862.06L1178.43 863.97" stroke="#454545" stroke-width="5.34826"/>
<path d="M936.521 62.4694L998.909 277.646L1007.18 311.387" stroke="#454545" stroke-width="5.34826"/>
<path d="M689.513 -393.985L660.229 -445.551M711.794 -329.05L848.031 104.486L1149.15 976.015" stroke="#454545" stroke-width="5.34826"/>
<path d="M595.93 -445.551L637.31 -372.976M657.682 -311.861L797.737 130.588L802.83 135.681L1009.73 743.65M1064.48 902.167L1100.77 1011.03" stroke="#454545" stroke-width="5.34826"/>
<path d="M518.263 -335.416L456.511 -445.551M498.527 -260.932L636.673 179.607L641.766 185.337M650.679 182.79L952.435 1065.78M970.261 1059.41L1045.38 1268.86" stroke="#454545" stroke-width="5.34826"/>
<path d="M692.696 170.694L551.367 -278.121" stroke="#454545" stroke-width="5.34826"/>
<path d="M394.123 -445.551L454.602 -338.599L434.867 -281.94M445.689 -244.38L586.381 201.252M596.567 198.069L899.597 1084.88M919.332 1077.87L1016.73 1345.25" stroke="#454545" stroke-width="5.34826"/>
<path d="M392.214 -227.828L532.27 216.531M543.729 213.348L847.395 1103.97M869.677 1096.34L977.265 1394.27" stroke="#454545" stroke-width="5.34826"/>
<path d="M394.759 -325.867L329.825 -445.551M282.715 -304.222L290.354 -324.594M478.156 231.81L338.737 -210.639L227.966 -399.714M490.252 228.627L795.192 1123.07M818.746 1114.16L928.881 1417.19" stroke="#454545" stroke-width="5.34826"/>
<path d="M265.527 -445.551L330.462 -325.867M297.994 -281.304L262.98 -223.371M286.535 -194.087L423.408 242.632M434.867 241.359L741.716 1142.17M717.525 1151.08L830.843 1463.66M844.212 1457.3L896.414 1567.43" stroke="#454545" stroke-width="5.34826"/>
<path d="M892.594 1433.74L921.879 1496.77L930.155 1500.59M768.454 1132.62L879.862 1439.47" stroke="#454545" stroke-width="5.34826"/>
<path d="M688.241 1161.91L378.845 252.181L363.566 238.176L233.06 -177.535M667.869 1169.55L783.097 1487.22M795.829 1480.85L865.22 1624.73" stroke="#454545" stroke-width="5.34826"/>
<path d="M227.965 -399.714L201.864 -445.551M177.036 -193.45L255.977 -323.32M304.996 237.539L179.583 -159.71M315.819 240.086L635.4 1181.01M617.575 1187.37L725.163 1484.04L739.806 1507.59M747.445 1504.41L827.659 1672.47L834.661 1680.75" stroke="#454545" stroke-width="5.34826"/>
<path d="M131.837 -445.551L151.572 -409.9L156.665 -386.982L154.755 -327.777M127.381 -143.158L241.972 224.17M252.794 225.443L583.835 1200.1M567.92 1205.83L686.331 1533.69M699.063 1527.33L785.006 1707.49" stroke="#454545" stroke-width="5.34826"/>
<path d="M11.5166 -137.428L75.8149 -253.292M53.5333 -323.32L59.2629 -330.323L63.0826 -346.239L65.629 -378.706L49.7136 -445.551M73.9051 -125.969L182.13 216.531M190.406 217.804L531.633 1219.2M516.99 1224.3L636.674 1557.25M714.978 1749.5L800.922 1848.18M651.317 1550.24L738.533 1734.86" stroke="#454545" stroke-width="5.34826"/>
<path d="M21.0654 -110.054L88.5468 105.759" stroke="#454545" stroke-width="5.34826"/>
<path d="M-50.8721 -445.551L-1.21595 -262.842M121.651 210.801L88.547 105.76M129.291 211.438L453.329 1169.55M436.14 1175.91L538.635 1456.02L593.384 1577.62M602.934 1573.8L693.333 1762.87" stroke="#454545" stroke-width="5.34826"/>
<path d="M-133.632 -314.408L-132.995 -322.047L-189.018 -445.551M57.9898 196.796L-30.5 -87.772L-70.6068 -135.518M-134.905 -305.495L-79.5195 -127.879M168.761 500.462L98.7333 298.018L110.192 270.643V210.165M385.847 1193.1L464.788 1407V1426.1L543.729 1601.81M555.188 1596.72L646.224 1789.61" stroke="#454545" stroke-width="5.34826"/>
<path d="M19.1562 356.587L60.5363 477.544M-85.249 -76.3127L26.7956 280.193M69.4489 474.361L321.549 1216.02M334.918 1210.93L360.383 1280.95M382.664 1341.43L413.222 1424.19L413.859 1445.2L493.436 1626M611.21 1810.62L660.229 1862.82M506.805 1619.63L599.751 1816.99" stroke="#454545" stroke-width="5.34826"/>
<path d="M-206.207 -332.87L-204.934 -341.146L-251.407 -445.551M-261.593 -445.551L-192.202 -301.039M-67.4246 163.055L-1.85305 371.865M-139.999 -58.4876L-115.807 21.0895M-152.731 -99.2311L-216.393 -299.765M365.475 1473.21L443.779 1650.19M284.625 1228.12L366.748 1457.3M674.234 1926.48L753.811 1961.5M458.421 1643.19L542.454 1821.44L650.679 1930.3" stroke="#454545" stroke-width="5.34826"/>
<path d="M-27.9538 391.6L7.69675 495.369M-118.353 179.607L-64.8776 348.311M-325.254 -445.551L-248.223 -277.484M234.969 1245.94L313.273 1464.3L310.726 1485.95L393.487 1674.38M410.039 1667.38L496.619 1847.54L583.198 1938.58" stroke="#454545" stroke-width="5.34826"/>
<path d="M-394.646 -445.551L-297.88 -255.839L-292.787 -252.656L-281.328 -245.016L-225.942 -73.7665M-75.0638 425.978L-45.1428 513.831M-169.283 195.522L-94.1623 435.527M-201.751 -5.01188L-183.289 86.661M152.208 1155.54L167.487 1200.74L166.851 1217.93L209.504 1336.34M467.334 1895.93L544.365 1977.41M252.157 1492.31L343.194 1699.21" stroke="#454545" stroke-width="5.34826"/>
<path d="M-295.969 -39.3891L-310.611 -82.0425L-338.622 -171.169L-349.445 -194.087M-332.892 -207.456L-454.486 -445.551M125.472 1261.22L215.235 1506.32L217.145 1516.5L208.869 1531.15L292.902 1723.4" stroke="#454545" stroke-width="5.34826"/>
<path d="M-308.701 19.1796L-220.211 436.8M-514.328 -445.551L-367.906 -158.437M145.844 1474.49L171.945 1543.88M173.855 1548.97L162.396 1566.16L243.883 1746.96" stroke="#454545" stroke-width="5.34826"/>
<path d="M-1117.21 -285.123L-994.976 65.6525L-975.24 133.134M-982.243 305.021L-690.673 627.149L-599 744.286L-388.916 1036.49L-171.193 1335.07M-78.8839 1587.17L-60.4219 1605.63L-28.5911 1710.03L17.2454 1834.17L141.386 2068.45M243.881 2242.25L245.791 2260.71L280.168 2325.01" stroke="#454545" stroke-width="5.34826"/>
<path d="M-1126.75 98.1202L-1094.29 204.435M-162.916 1668.02L-147.637 1684.57L-50.8713 1975.5L-6.94471 2004.79M-332.256 1303.87L-478.678 1102.7L-585.63 955.643L-684.305 902.167M24.2495 2325.01L12.1538 2285.54" stroke="#454545" stroke-width="5.34826"/>
<path d="M806.651 1854.55L917.422 1904.2L961.349 1907.39L1053.66 1944.31L1479.55 2125.75M-113.261 2325.01L12.1528 2285.54L61.1723 2265.8" stroke="#454545" stroke-width="5.34826"/>
<path d="M192.953 2058.26L825.113 1684.57L834.662 1680.75L883.682 1708.76M-903.938 2325.01L-876.564 2312.91" stroke="#454545" stroke-width="5.34826"/>
<path d="M930.156 1500.59L982.995 1534.96L1356.69 1685.84M119.106 1911.21L182.131 1894.65L456.513 1764.15M-1040.81 2325.01L-988.608 2301.45" stroke="#454545" stroke-width="5.34826"/>
<path d="M98.0967 1865.37L163.032 1844.36L406.219 1727.86" stroke="#454545" stroke-width="5.34826"/>
<path d="M131.201 1717.67L213.324 1681.39M-264.138 1787.07L-28.59 1710.03M30.6154 1715.13L119.105 1687.12M-630.193 2007.33L-624.463 2005.42L-554.436 1918.21M-1232.43 2233.97L-1053.54 2154.39" stroke="#454545" stroke-width="5.34826"/>
<path d="M42.0737 1765.42L136.93 1733.59M-1225.43 2289.99L-1031.9 2204.05" stroke="#454545" stroke-width="5.34826"/>
<path d="M1147.24 1306.42L1479.56 1438.84" stroke="#454545" stroke-width="5.34826"/>
<path d="M109.555 1648.92L538.635 1456.02L1045.38 1268.86L1058.11 1266.31L1112.23 1294.32L1147.24 1306.42M-766.43 2067.81L-553.163 1835.45M-1080.92 2092.64L-928.767 2025.16M-1238.16 2177.95L-1075.19 2105.37" stroke="#454545" stroke-width="5.34826"/>
<path d="M215.234 1506.32L310.727 1471.94M-12.6745 1603.72L50.3506 1597.99L103.826 1592.26M-808.446 2034.07L-591.996 1799.16M-1244.53 2122.56L-1096.83 2056.35" stroke="#454545" stroke-width="5.34826"/>
<path d="M94.2771 1492.95L497.892 1344.62M519.537 1312.79L1062.57 1113.52L1479.56 1280.32M-849.826 2000.33L-635.923 1769.24M-1250.26 2067.81L-1119.75 2006.06" stroke="#454545" stroke-width="5.34826"/>
<path d="M87.9111 1437.56L278.896 1368.17M332.372 1359.9L432.958 1322.33M1185.44 1089.97L1329.31 1146.63" stroke="#454545" stroke-width="5.34826"/>
<path d="M183.403 1263.77L453.328 1169.55M80.9072 1326.79L141.386 1304.51M933.337 1009.76L1021.83 980.471M1214.09 951.824L1158.7 938.455" stroke="#454545" stroke-width="5.34826"/>
<path d="M1241.46 893.891L1479.55 988.747M-1291 1835.45L-1240.71 1773.06" stroke="#454545" stroke-width="5.34826"/>
<path d="M84.7265 1236.39L1142.78 876.066L1223.63 895.164L1241.46 893.891M-1106.38 1793.43L-585.631 1561.07" stroke="#454545" stroke-width="5.34826"/>
<path d="M1217.27 745.56L1269.47 763.385L1280.3 758.292L1479.56 837.232M879.226 849.965L974.719 817.497M121.016 1103.97L401.764 1011.67" stroke="#454545" stroke-width="5.34826"/>
<path d="M896.413 900.894L991.906 868.426M107.645 1151.72L152.208 1155.54L419.587 1064.5" stroke="#454545" stroke-width="5.34826"/>
<path d="M130.564 1047.95L1328.68 634.788H1368.78M-401.011 1291.78L-390.826 1319.15L-439.845 1340.16L-1254.71 1704.3" stroke="#454545" stroke-width="5.34826"/>
<path d="M-14.5842 914.9L94.2773 936.545L105.1 935.271L347.651 853.148M1351.6 627.785L1412.07 633.515L1479.56 636.061M823.84 690.81L920.606 657.07M-462.126 1280.32L-299.152 1159.36" stroke="#454545" stroke-width="5.34826"/>
<path d="M841.027 741.74L937.793 708.636M121.014 988.747L365.474 905.987M122.287 995.113L-178.833 939.728" stroke="#454545" stroke-width="5.34826"/>
<path d="M1345.23 572.4L1479.55 578.766" stroke="#454545" stroke-width="5.34826"/>
<path d="M66.2651 820.68L58.6257 827.047L14.0625 897.711M786.916 583.222L884.318 548.845M70.0848 830.866L311.363 747.469" stroke="#454545" stroke-width="5.34826"/>
<path d="M1479.56 523.38L1369.42 518.924" stroke="#454545" stroke-width="5.34826"/>
<path d="M35.7073 759.565L-45.7797 887.525L-60.4219 912.99M1175.25 357.86L1392.34 424.068M47.1664 779.937L1184.16 389.054M-812.267 1275.86L-739.056 1222.39M1401.89 403.06L1479.55 406.243" stroke="#454545" stroke-width="5.34826"/>
<path d="M751.264 477.544L847.394 444.44M1058.11 371.865L1168.89 334.305M1156.15 291.651L1403.16 367.409M17.2451 730.917L275.712 641.791M1416.53 347.674L1479.55 350.22" stroke="#454545" stroke-width="5.34826"/>
<path d="M1203.26 245.179L1422.9 313.297M-18.4052 683.808L1153.61 282.103M-652.476 1052.41L-607.276 1019.94L-472.313 921.266M1429.26 291.652L1479.55 293.562" stroke="#454545" stroke-width="5.34826"/>
<path d="M-57.2376 637.971L239.426 536.113M1248.46 199.979L1438.18 259.821M984.904 283.376L1140.24 236.266M714.979 372.502L811.745 339.398M-1012.16 1207.74L-969.51 1183.55" stroke="#454545" stroke-width="5.34826"/>
<path d="M1292.39 157.325L1454.09 206.345M-97.3452 592.135L900.234 248.998L1124.32 183.427M-1291 1293.69L-730.142 986.837" stroke="#454545" stroke-width="5.34826"/>
<path d="M-138.087 545.662L150.3 446.349M-1271.27 1181.64L-1164.95 1142.81L-1091.1 1102.7M1339.5 114.035L1472.55 154.142" stroke="#454545" stroke-width="5.34826"/>
<path d="M39.5273 416.429L100.006 395.42M678.691 265.55L769.727 233.719M1377.7 47.8273L1371.33 45.2808L1191.17 98.1201L1168.25 105.123L1163.79 110.852M1377.7 47.8273L1373.88 52.9202L1170.16 113.399L1163.79 110.852M1377.7 47.8273L1406.98 42.7344L1479.55 72.6554M1163.79 110.852L904.69 186.61M129.29 385.234L287.171 331.122" stroke="#454545" stroke-width="5.34826"/>
<path d="M-169.283 467.358L-75.0636 425.978L98.7329 298.018M-1291 1074.05L-1261.72 1062.59L-1172.59 998.296" stroke="#454545" stroke-width="5.34826"/>
<path d="M982.357 -48.3018L231.149 188.52" stroke="#454545" stroke-width="5.34826"/>
<path d="M-1233.07 942.274L-1227.98 934.635L-927.494 767.841M103.826 208.891L101.916 224.807L-110.714 382.051L-177.559 414.519M-1291 1014.85L-1204.42 955.643M1417.8 -12.0146L1479.55 12.8134" stroke="#454545" stroke-width="5.34826"/>
<path d="M-1168.77 517.014L-911.578 384.598M-193.474 299.928L-39.4131 251.545M-1291 566.034L-1244.53 547.572M1479.55 -210.639L1457.27 -218.915" stroke="#454545" stroke-width="5.34826"/>
<path d="M-1195.51 469.904L-950.412 342.581M-603.456 333.668L-595.18 316.48M-595.18 316.48L-204.933 234.356M-595.18 316.48L-612.368 322.846L-613.642 331.122M-210.663 208.891L-55.3284 159.235L-45.7792 148.413L1013.55 -187.084L1422.26 -243.107M-1268.72 498.552L-1291 508.101M1464.91 -274.301L1479.55 -268.571" stroke="#454545" stroke-width="5.34826"/>
<path d="M-223.396 155.416L-84.613 111.489M1335.68 -283.214L1415.89 -294.036M1472.55 -328.413L1479.55 -325.867" stroke="#454545" stroke-width="5.34826"/>
<path d="M-148.275 31.2753L776.092 -261.568M820.656 -269.845L846.12 -278.121M1467.46 -445.551L1479.55 -441.094" stroke="#454545" stroke-width="5.34826"/>
<path d="M1316.58 -428.999L1348.41 -434.092M1951.29 -445.551L1989.49 -432.818L2024.5 -438.548M1889.54 -430.272L1885.08 -413.083L1783.86 -445.551M1414.62 -127.242L1443.27 -61.6708L1480.19 -46.392M1608.79 -329.05L1555.95 -186.448M1339.5 114.036L1472.55 154.142M2330.08 544.389L2305.25 646.247M1974.21 715.002L2145.46 722.005M2017.5 773.571L2146.73 778.664M2419.84 566.034L2427.48 536.113M2578.36 334.305L2667.48 364.226M2675.76 311.387L2594.91 284.012M2328.17 49.1006L2302.7 129.314M2737.51 90.4807L2768.07 -46.392M3089.56 272.553L3059 268.097M3160.86 270.643L3094.02 252.181M3202.24 185.337L3183.78 177.697L3154.5 175.787M3262.08 271.917L3176.78 234.356M3283.73 222.26L3229.62 348.311M3353.76 194.249L3262.72 152.869M3375.4 145.23L3311.74 118.492M3353.12 46.5541L3299.01 13.45M3244.89 -58.4877L3291.37 -29.8399M3305.37 -355.151L3500.81 -308.678M3307.92 -131.699L3400.87 -281.304M3931.8 -322.684L3950.27 -283.85L3945.17 -279.394M3759.92 -149.524L3745.28 -180.082M3913.34 -46.392L3921.62 -49.5751L3982.1 -19.654M3982.1 -19.654L4033.03 -3.73863L4015.2 84.1145L4018.38 124.221M3982.1 -19.654L3959.82 85.3877L3948.36 104.486M3948.36 104.486L3971.27 140.773L3972.55 163.055L3966.82 177.697L3962.36 167.511V138.227L3966.18 132.497L4087.14 118.492M3948.36 104.486L3924.17 87.2976L3914.62 72.0188L3913.34 45.9175L3922.26 -6.92169L3920.35 -29.8399L3907.61 -61.0341L3908.89 -73.1299L3929.89 -118.966L3947.72 -201.09M3997.38 275.1L3853.5 263.64M3932.44 238.176L3875.78 213.984M3831.86 578.129L3784.75 558.394M3845.86 526.563L3805.75 509.375M3840.77 706.726L3825.49 819.407M3241.08 320.936L3157.68 284.012M3066.64 326.666L3080.65 330.485M2986.43 581.312L2908.12 561.577M2870.56 680.625L2894.76 613.78M2894.76 613.78L2917.67 523.38L2924.04 513.831L2932.95 512.558L3000.43 532.929L3002.34 541.205L2944.41 688.901L2937.41 696.54M2894.76 613.78L2966.69 631.605M2882.02 289.742L2904.94 456.535M2888.39 634.788L2755.34 600.411M3017.62 854.421L2946.32 948.64M2839.37 902.804L2813.27 950.55M2789.71 881.795L2767.43 922.539M2955.87 1091.88L2949.5 1111.61L2908.12 1181.01L2865.47 1266.95M2762.34 1268.22L2675.76 1393.64M2846.37 1324.88L2762.34 1448.38M2888.39 1354.8L2806.9 1473.85M2805.63 1294.32L2722.23 1416.55M2926.59 1378.36L2879.48 1459.84L2849.56 1502.5M2912.58 1503.77L2951.41 1438.2M2880.11 1627.91L2920.86 1538.15M2880.11 1627.91L2783.35 1571.89L2755.97 1569.98L2737.51 1590.99L2736.87 1617.72M2880.11 1627.91L2905.58 1648.92M3047.54 1523.51L2894.76 1433.11M2896.67 1289.23L2863.56 1336.98M3001.71 1238.94L2990.88 1255.49V1266.95L2995.98 1273.31L3092.74 1340.8M3123.3 1296.87L3055.82 1393M3143.04 1245.3L3112.48 1288.59M3284.36 1540.06L3253.17 1587.17M3263.36 1163.82L3249.35 1186.74M3237.26 1148.54L3300.92 1186.1L3305.37 1205.2L3299.01 1220.48L3344.84 1247.21M3061.55 1000.21L3062.19 1032.67M3253.81 976.015L3227.71 1026.94M3195.88 1019.94L3196.51 1082.33M3833.77 1336.98L3774.56 1431.83M3978.91 1291.14L3967.46 1308.97L3897.43 1476.4M4033.03 1317.88L3956.63 1501.86M3739.55 1462.39L3654.88 1412.73M3745.91 1573.8L3614.13 1501.22M3762.46 1524.14L3635.14 1454.75L3590.58 1422.28M3528.83 1291.78L3627.5 1342.71M3451.16 1314.69L3445.43 1326.79L3428.88 1343.98M3489.36 1378.99L3448.61 1360.53L3388.13 1309.6L3328.29 1277.77M3482.99 1250.4L3473.44 1238.94L3448.61 1226.21L3427.6 1229.39L3416.78 1239.57L3380.49 1306.42M3351.21 1349.71L3391.95 1385.36L3405.96 1414.64L3399.59 1436.29L3369.03 1500.59M3369.03 1500.59L3424.42 1522.87M3369.03 1500.59L3346.75 1505.04L3329.56 1515.87L3305.37 1553.43M3367.76 1445.84L3390.04 1455.39M3456.25 1767.33L3481.08 1725.31L3490.63 1724.68L3607.77 1794.7L3644.69 1784.52M3661.88 1840.54L3609.68 1856.46L3587.39 1870.46L3574.66 1889.56L3547.92 1960.22M3720.45 1728.5L3677.16 1712.58L3551.11 1641.92M3840.77 1626.64L3791.11 1608.18M3945.17 1620.91L3854.77 1587.8M3984.01 1667.38L3935.62 1650.19M3910.8 1717.67L3885.97 1708.76L3871.96 1697.94L3867.51 1684.57L3871.96 1654.65L3835.04 1643.83M3710.9 1868.55L3710.26 1879.37L3720.45 1909.3L3715.35 1916.93L3686.07 1920.12M3728.09 2035.35L3708.99 2042.35L3687.98 2041.07M3821.03 1943.04L3767.56 1946.22M3900.61 1944.31L3874.51 1944.95M3932.44 2028.98L3935.62 2116.2L3942.63 2135.93M3913.34 2179.22L3861.78 2184.95L3762.46 2179.86M3823.58 2104.1L3822.31 2133.38L3812.76 2155.03L3810.21 2182.4M3881.51 2105.37L3746.55 2102.83M3683.52 2100.92L3694.98 2095.19L3745.91 2099.64M3686.71 2213.6L3675.88 2246.07L3670.79 2251.16H3663.79L3610.31 2234.61L3567.02 2193.23L3606.49 2156.3M3635.14 2061.45L3610.95 2060.17L3593.12 2065.27M3593.12 2065.27L3578.48 2076.09L3561.93 2099.64M3593.12 2065.27L3560.66 2035.35L3454.98 1963.41M3677.16 1891.47L3624.32 1910.57L3577.21 2048.71M3596.31 1993.97L3503.36 1929.67L3490.63 1914.39M3393.86 2160.12L3326.38 2249.89L3300.28 2263.25M3349.3 2116.2L3316.83 2146.12L3269.09 2161.4M3221.98 2120.65L3165.95 2085M3246.17 2091.37L3166.59 2196.41M3048.82 2118.11L3099.11 2188.13L3092.74 2198.96M3039.9 2128.29L3067.28 2095.82M3223.25 1994.6L3151.95 2107.28L3125.85 2127.65M3176.78 1967.23L3093.38 2102.19M3130.3 1940.49L3047.54 2071.63M3309.83 1748.23L3253.17 1725.95M3002.34 1757.14L3059 1622.82L3066.01 1590.99M2978.79 1543.24L2941.87 1618.36L2929.77 1633L2905.58 1648.92M2905.58 1648.92L2907.49 1670.56L2899.85 1689.03M2868.65 1682.02L2742.6 1624.73M2729.87 1623.45L2715.87 1644.46L2718.41 1651.47M2715.23 1657.83L2738.15 1627.27M2814.54 1892.11L2815.18 1902.29L2808.18 1920.75L2796.08 1922.03L2787.17 1929.03L2754.7 1990.78L2727.96 2052.53M3103.57 1982.51L3050.09 1948.77L3013.17 1934.76L2979.43 1932.85L2923.4 1939.85M2972.42 2017.52L2949.5 2046.17M3076.83 2025.16L3030.35 1992.69L3002.98 1981.87H2978.15L2953.96 1998.42M2915.76 2237.15L2822.18 2183.68M2465.68 2176.04L2430.03 2229.51M2349.17 2158.21L2247.95 2085.64M2318.62 2211.05L2279.78 2185.59L2254.96 2186.86M2470.77 1728.5L2489.23 1687.75M2541.43 1703.67L2491.78 1806.16L2456.13 1857.09M2638.2 1750.78L2580.9 1869.19L2543.98 1920.12M2589.18 1727.22L2536.34 1836.72L2500.05 1888.92M2670.03 1583.35L2688.49 1567.43M2646.47 1471.3L2612.73 1531.14M2496.87 1408.28L2466.31 1395.55L2338.99 1399.37M2493.69 1231.3L2486.68 1287.32M2385.46 1506.95L2340.26 1622.18M2601.91 1261.22L2481.59 1226.21M2441.48 977.925L2426.21 1034.58M2316.07 942.274L2300.16 998.296M1747.57 1973.59L1840.52 2004.79M1767.94 1923.94L1855.8 1953.22M1683.27 2127.65L1792.77 2172.85M2261.32 2274.08L2205.94 2269.62M1316.58 667.892L1354.14 681.898M1316.58 574.946L1347.78 587.679M1316.58 221.624L1438.18 259.821M2328.17 2324.37V2325.01M2338.35 2298.9L2323.07 2320.55M2423.66 2325.01L2398.83 2306.54L2385.46 2325.01M2510.24 2209.78L2456.13 2284.26M2553.53 2241.61L2493.05 2325.01M2596.82 2273.44L2559.26 2325.01M3054.55 2208.51L2990.88 2325.01M3141.76 2293.81L3071.1 2314.82L3012.53 2283.63M3200.33 2302.09L3148.77 2318M3260.81 2319.28L3248.08 2325.01M3291.37 2235.88L3240.44 2251.16M3827.4 2280.44L3822.94 2251.16L3831.86 2239.06L3882.15 2240.97L3887.88 2249.89L3889.79 2301.45L3885.33 2309.09L3837.59 2312.27L3831.22 2305.27L3827.4 2280.44ZM3827.4 2280.44L3765.01 2281.72M4087.14 2083.09L4070.59 2090.73L4052.13 2092.64L3934.35 2074.18M4050.22 1918.21L4058.49 1827.81L4055.31 1778.15L4054.67 1755.87M4061.67 1468.76L4042.58 1448.38M4087.14 483.273H4085.87M4071.86 118.492L4070.59 79.6582L4087.14 -0.555569M4083.96 -388.255L4087.14 -387.619" stroke="#454545" stroke-width="5.34826"/>
<path d="M1578.23 465.448L1577.59 471.814M1577.59 471.814L1403.8 464.175L1382.15 459.719M1577.59 471.814L1860.89 483.273L1867.89 480.09M1867.89 480.09L1860.89 476.271L1809.96 473.724M1867.89 480.09L2137.82 492.186M1809.96 473.724L1345.23 455.899L1316.58 462.902M1809.96 473.724V481.364M1694.1 469.904L1693.46 476.271M1463 460.992V466.721" stroke="#454545" stroke-width="5.34826"/>
<path d="M1497.38 -90.3185L1408.89 134.407" stroke="#454545" stroke-width="5.34826"/>
<path d="M2075.43 776.117L1666.08 1812.53M1436.9 2325.01L1536.85 2089.46" stroke="#454545" stroke-width="5.34826"/>
<path d="M2039.14 718.185L1615.79 1786.43M1463.64 2119.38L1377.06 2325.01" stroke="#454545" stroke-width="5.34826"/>
<path d="M2107.9 -43.8455L1991.4 313.933L1981.21 543.752L1978.66 599.138L1972.3 736.647L1562.32 1767.97M1316.58 2324.37L1412.07 2097.1" stroke="#454545" stroke-width="5.34826"/>
<path d="M1918.82 655.16L1915.64 729.644L1512.02 1747.59M1361.15 2075.45L1316.58 2181.13M1400.62 2004.15L1367.51 2078" stroke="#454545" stroke-width="5.34826"/>
<path d="M2025.77 -445.551L2024.5 -438.548M2023.23 -428.999L2011.77 -391.438M1802.32 650.704L1799.14 720.731L1408.25 1706.85" stroke="#454545" stroke-width="5.34826"/>
<path d="M1899.72 -118.329L1760.3 304.384L1743.11 709.909L1356.69 1685.84" stroke="#454545" stroke-width="5.34826"/>
<path d="M1762.85 119.128L1737.39 194.886M1685.82 645.611L1682.64 704.816L1664.81 752.562L1316.58 1630.46" stroke="#454545" stroke-width="5.34826"/>
<path d="M1893.99 -445.551L1889.54 -430.272M1885.08 -413.083L1836.06 -260.932L1825.24 -246.926L1676.91 199.342M1654.63 267.46L1643.8 299.928L1627.25 693.357L1316.58 1481.49" stroke="#454545" stroke-width="5.34826"/>
<path d="M1795.32 -445.551L1743.75 -286.397M1766.03 -275.574L1621.52 75.8385M1572.5 641.154L1569.32 687.627L1561.04 711.819L1316.58 1329.97" stroke="#454545" stroke-width="5.34826"/>
<path d="M1713.19 -288.307L1580.14 35.0949M1528.58 295.471L1513.3 679.988L1316.58 1176.55" stroke="#454545" stroke-width="5.34826"/>
<path d="M1536.21 -445.551L1524.12 -366.61M1457.91 670.439L1316.58 1026.94" stroke="#454545" stroke-width="5.34826"/>
<path d="M1412.07 633.515L1316.58 875.43" stroke="#454545" stroke-width="5.34826"/>
<path d="M1334.41 -92.8652L1401.25 131.861M1316.58 -424.543L1361.78 -103.688" stroke="#454545" stroke-width="5.34826"/>
<path d="M1399.34 -414.357L1422.26 -243.107M1387.88 -115.147L1421.62 6.44714" stroke="#454545" stroke-width="5.34826"/>
<path d="M1870.44 1894.65L2170.92 2014.97M2173.47 2007.97L1875.53 1890.2M1316.58 1669.93L1356.69 1685.84" stroke="#454545" stroke-width="5.34826"/>
<path d="M1316.58 1373.9L2195.75 1725.31" stroke="#454545" stroke-width="5.34826"/>
<path d="M2340.26 1622.18L2242.22 1582.07M2177.92 1557.88L2133.36 1540.69L2029.59 1499.95L1316.58 1215.38" stroke="#454545" stroke-width="5.34826"/>
<path d="M1316.58 923.812L2162.65 1260.58" stroke="#454545" stroke-width="5.34826"/>
<path d="M1316.58 772.934L2157.55 1105.88M2329.44 1109.7L2223.76 1113.52" stroke="#454545" stroke-width="5.34826"/>
<path d="M2143.55 664.073L1412.07 633.515L1351.6 627.785" stroke="#454545" stroke-width="5.34826"/>
<path d="M1345.23 572.4L2141.64 606.14" stroke="#454545" stroke-width="5.34826"/>
<path d="M1369.42 518.924L1981.21 543.752L2139.09 550.118" stroke="#454545" stroke-width="5.34826"/>
<path d="M1401.89 403.06L2135.91 432.981M1316.58 401.15L1392.34 424.068" stroke="#454545" stroke-width="5.34826"/>
<path d="M1416.53 347.674L2133.36 376.958M1316.58 340.671L1403.16 367.409" stroke="#454545" stroke-width="5.34826"/>
<path d="M1429.26 291.652L2131.45 319.663M1316.58 280.193L1422.9 313.297" stroke="#454545" stroke-width="5.34826"/>
<path d="M1692.19 247.088L2014.31 259.184L2130.82 298.654M1316.58 164.965L1454.09 206.345" stroke="#454545" stroke-width="5.34826"/>
<path d="M1709.37 194.249L1911.82 201.889M1377.7 47.8273L1371.33 45.2808L1316.58 61.1963M1377.7 47.8273L1373.88 52.9202L1316.58 70.1089M1377.7 47.8273L1406.98 42.7344L1666.72 147.776" stroke="#454545" stroke-width="5.34826"/>
<path d="M1738.02 110.852L2128.9 241.359M1517.75 38.2781L1673.09 95.5736M1417.8 -12.0146L1520.94 29.3655M2301.43 298.654L2659.84 418.975" stroke="#454545" stroke-width="5.34826"/>
<path d="M1715.1 -67.4003L2102.8 62.4695M2684.04 257.274L2302.7 129.314M1316.58 -159.073L1352.87 -164.166M1351.6 -176.898L1402.53 -183.901L1411.44 -181.355" stroke="#454545" stroke-width="5.34826"/>
<path d="M1227.46 1461.75L1344.59 1678.84L1479.56 1734.23" stroke="#454545" stroke-width="14.4838"/>
<path d="M-94.7988 1349.07L82.8173 1380.27L1100.77 1011.03L1191.8 1020.58L1479.55 1139.63" stroke="#454545" stroke-width="14.4838"/>
<path d="M1123.69 1256.76L1179.07 1375.81L1227.46 1461.75" stroke="#454545" stroke-width="14.4838"/>
<path d="M126.744 2325.01L199.319 2026.43L190.406 1939.85L169.398 1841.18L153.482 1781.97L112.102 1669.29L82.8177 1380.27L80.9079 1270.13L84.7276 1236.39L128.018 1078.51L131.201 1053.68L121.015 988.747L79.6346 855.058L47.1672 779.937L1.33076 707.999L-164.826 513.194L-177.559 414.519" stroke="#454545" stroke-width="14.4838"/>
<path d="M1327.4 618.236L1479.56 678.715" stroke="#454545" stroke-width="14.4838"/>
<path d="M87.9107 1437.56L71.9952 1448.38L-78.883 1587.17L-206.206 1710.03L-335.44 1880.65L-346.262 1912.48L-348.809 1955.13" stroke="#454545" stroke-width="14.4838"/>
<path d="M1479.56 1585.89L1217.91 1480.85L992.543 1391.73L977.265 1394.27L155.392 1788.98L-348.809 1955.13" stroke="#454545" stroke-width="14.4838"/>
<path d="M1316.58 1626.64L1344.59 1678.84L1562.32 1767.97" stroke="#454545" stroke-width="14.4838"/>
<path d="M1316.58 1072.14L1899.09 1312.79L2058.88 1426.1" stroke="#454545" stroke-width="14.4838"/>
<path d="M1327.4 618.236L2212.94 970.922" stroke="#454545" stroke-width="14.4838"/>
<path d="M1316.58 1520.32L2184.29 1866.01" stroke="#454545" stroke-width="14.4838"/>
<path d="M890.685 1711.94L883.682 1708.76M806.652 1854.55L800.922 1848.18M761.452 1964.04L753.812 1961.5M740.443 1999.7L746.81 2002.24M616.94 2278.53L612.483 2286.81" stroke="#454545" stroke-width="19.5569"/>
<path d="M1340.77 584.496L1269.47 763.385L1240.82 848.692L1161.88 1153.63L1123.69 1256.76" stroke="#454545" stroke-width="19.5569"/>
<path d="M1123.69 1256.76L1023.74 1433.11L956.893 1570.62L883.682 1708.76L800.922 1848.18L746.173 1983.14L685.694 2154.39L616.939 2278.53M612.483 2286.81L591.475 2325.01M615.029 2325.01L692.697 2180.49L706.066 2148.66L748.719 1996.51L817.474 1829.72L890.685 1711.94L982.994 1534.96L1017.37 1457.93L1128.14 1266.31L1168.89 1156.18L1236.37 894.528L1263.11 806.675L1353.51 573.673L1382.79 469.904L1382.15 459.719M1392.34 424.068L1396.16 421.522L1416.53 347.674V334.942M1416.53 334.942L1479.56 135.681M1416.53 334.942L1412.07 338.125L1406.34 355.313L1390.43 419.612L1391.7 426.615L1340.77 584.496" stroke="#454545" stroke-width="19.5569"/>
<path d="M524.63 -445.551L561.554 -379.979L582.562 -355.788L604.844 -295.309M604.844 -295.309L611.846 -259.659L743.626 157.325L1108.41 1230.02L1123.69 1256.76L765.271 202.525L610.573 -288.943L604.844 -295.309ZM578.106 -360.244L530.359 -445.551" stroke="#454545" stroke-width="19.5569"/>
<path d="M1674.36 -445.551L1659.72 -308.678L1466.19 171.968L1416.53 334.942M1416.53 334.942L1412.07 338.125L1406.35 355.313L1390.43 419.612L1391.7 426.614L1340.77 584.495M1416.53 334.942V347.674L1396.16 421.522L1392.34 424.068M1316.58 665.346L1353.51 573.673L1382.79 469.904L1382.15 459.718" stroke="#454545" stroke-width="19.5569"/>
<path d="M1007.82 -441.094L1021.83 -445.551M1015.46 -445.551L1007.19 -443.004M993.816 -438.548L886.228 -404.807M886.865 -402.261L993.816 -436.638M993.18 -441.094L885.591 -406.717M-1135.03 240.086L-296.606 -25.3836M-770.249 115.945L-1138.85 232.446M-700.858 297.381L-697.675 259.184L-688.126 236.903L-658.841 192.976L-615.551 147.776L-553.163 112.762L-403.558 64.3794L-282.601 -20.9273M-302.336 -32.3864L-765.156 114.672M-48.3257 -100.504L-265.412 -29.2033M-273.051 -33.023L-50.8722 -103.687M-54.6918 -108.78L-276.235 -38.116M-274.325 -35.5695L-54.0553 -105.597M-55.9651 -110.69L-278.781 -40.0258M319.639 -229.101L-40.0497 -113.237M318.366 -231.647L-41.9596 -115.783M-38.7765 -110.69L321.549 -226.555M308.18 -219.552L-34.3201 -105.597M587.655 -313.771L333.644 -233.557M586.381 -316.318L332.371 -236.104M335.554 -231.011L588.291 -311.225M863.946 -400.351L607.39 -323.32M865.22 -397.805L608.663 -320.137M609.3 -317.591L865.856 -395.895M-50.8722 1555.97L-80.7931 1464.94L-125.993 1352.89M-134.269 1351.62L-53.4187 1558.52M-136.815 1331.88L-203.66 1232.57L-632.74 636.061L-803.353 424.705M-209.39 1223.66L-244.404 1167L-444.301 890.072L-493.958 811.131L-634.65 472.451L-692.582 351.494L-698.948 320.936M-1291 296.108L-1150.95 245.815M-1291 293.561L-1152.22 242.632M-1154.13 237.539L-1291 280.829M-1152.86 240.086L-1291 284.012" stroke="#2B2B2B" stroke-width="1.65352"/>
<path d="M1008.46 -437.911L1032.65 -445.551M887.501 -399.714L994.453 -433.455M-299.153 -30.4765L-1137.58 234.993M-1136.3 237.539L-297.879 -28.5667M-803.353 424.705L-854.919 365.499L-895.663 331.758L-932.587 307.567M-937.043 308.84L-896.936 334.305L-861.286 362.953L-667.117 595.318L-206.207 1233.84L-144.455 1330.61M322.822 -224.008L-36.2299 -108.144M589.565 -308.678L336.191 -228.464M867.13 -393.348L609.936 -315.044M182.766 2062.72L57.9894 1830.35M55.443 1830.99L181.493 2066.54M194.225 2090.09L322.822 2325.01M326.642 2325.01L195.499 2085M-47.689 1572.52L47.8035 1815.08M50.9866 1813.8L-45.1425 1569.98M-1023.62 1899.75L-1233.07 1731.68M-1225.43 1742.5L-1026.81 1901.02M-1010.89 1913.75L-618.098 2228.24M-615.551 2225.69L-1007.71 1912.48M-1291 1689.66L-1255.99 1717.67M-1262.35 1708.12L-1291 1685.21M-603.456 2240.97L-501.597 2325.01M-495.867 2325.01L-600.273 2239.06" stroke="#2B2B2B" stroke-width="1.65352"/>
<path d="M994.453 -433.455L1008.46 -437.911M993.816 -436.638L1007.82 -441.094M1007.18 -443.004L993.816 -438.548M1006.55 -445.551L993.179 -441.094M885.591 -406.717L863.946 -400.351M886.228 -404.807L865.219 -397.805M865.856 -395.895L886.864 -402.261M867.129 -393.348L887.501 -399.714M-765.157 114.672L-770.25 115.945M-1150.95 245.815L-1135.03 240.086M-1152.22 242.632L-1136.3 237.539M-1137.58 234.993L-1152.86 240.086M-1138.85 232.446L-1154.13 237.539M-698.949 320.936L-700.858 297.381M-278.781 -40.0258L-302.336 -32.3864M-276.235 -38.116L-299.153 -30.4765M-297.88 -28.5667L-274.325 -35.5695M-296.607 -25.3836L-273.052 -33.023M-265.412 -29.2033L-282.601 -20.9273M-41.9598 -115.783L-55.9654 -110.69M-40.05 -113.237L-54.6922 -108.78M-34.3205 -105.597L-48.326 -100.504M-36.2303 -108.144L-50.8724 -103.687M-54.0556 -105.597L-38.7767 -110.69M332.371 -236.104L318.365 -231.647M333.644 -233.557L319.639 -229.101M321.548 -226.555L335.554 -231.011M336.191 -228.464L322.822 -224.008M609.936 -315.044L589.564 -308.678M588.291 -311.225L609.299 -317.591M607.389 -323.32L586.381 -316.318M608.663 -320.137L587.654 -313.771M195.498 2085L182.766 2062.72M181.493 2066.54L194.225 2090.09M57.989 1830.35L50.9863 1813.8M47.8032 1815.08L55.4425 1830.99M-45.1429 1569.98L-50.8724 1555.97M-53.4189 1558.52L-47.6894 1572.52M-144.455 1330.61L-134.269 1351.62M-125.993 1352.89L-136.816 1331.88M-1026.81 1901.02L-1010.89 1913.75M-1007.71 1912.48L-1023.62 1899.75M-618.098 2228.24L-603.456 2240.97M-600.273 2239.06L-615.552 2225.69M-1233.07 1731.68L-1262.35 1708.12M-1255.99 1717.67L-1225.43 1742.5" stroke="#2B2B2B" stroke-width="1.65352"/>
</g>
<rect x="-103" y="981" width="1866" height="945" fill="url(#paint0_linear_2209_4498)"/>
</g>
<defs>
<linearGradient id="paint0_linear_2209_4498" x1="830" y1="981" x2="830" y2="1926" gradientUnits="userSpaceOnUse">
<stop stop-color="#1A1A1A" stop-opacity="0"/>
<stop offset="1" stop-color="#1A1A1A"/>
</linearGradient>
<clipPath id="clip0_2209_4498">
<rect width="1984.23" height="1971" fill="white" transform="translate(-117 -45)"/>
</clipPath>
</defs>
</svg>
