<svg width="42" height="43" viewBox="0 0 42 43" fill="none" xmlns="http://www.w3.org/2000/svg">
<rect y="0.6875" width="42" height="42" rx="9.17413" fill="black"/>
<path fill-rule="evenodd" clip-rule="evenodd" d="M11.582 11.8956C11.5847 11.8999 13.2514 14.1394 15.286 16.872C18.4099 21.0679 18.9836 21.8427 18.9747 21.8538C18.969 21.8611 17.3895 23.7157 15.4647 25.9752L11.9652 30.0834L13.463 30.0856C14.2868 30.0868 14.9653 30.0861 14.9708 30.0839C14.9762 30.0818 16.192 28.6579 17.6725 26.9197C19.153 25.1815 20.3708 23.7523 20.3787 23.7436C20.3924 23.7287 20.5063 23.88 22.761 26.9078L25.1289 30.0877H28.1554H31.182L31.1325 30.0205C29.8289 28.252 23.4779 19.6246 23.4703 19.6119C23.46 19.595 23.6791 19.3358 26.7375 15.7457C28.5405 13.6293 30.0157 11.8954 30.0157 11.8927C30.0157 11.8899 29.3402 11.8877 28.5144 11.8877H27.0131L24.5554 14.7731C23.2037 16.36 22.09 17.6681 22.0805 17.68L22.0634 17.7015L20.9113 16.137C20.2776 15.2766 19.3143 13.9685 18.7706 13.2301L17.782 11.8877H14.6796C12.8153 11.8877 11.5792 11.8909 11.582 11.8956ZM21.6265 20.0942C24.2387 23.6416 26.6569 26.9256 27.0002 27.392L27.6246 28.2399H26.7938H25.9629L25.6059 27.7606C25.4096 27.497 24.7605 26.6255 24.1636 25.824C22.691 23.8464 20.9725 21.5388 17.2286 16.5114C16.1538 15.0681 15.233 13.8316 15.1825 13.7636L15.0907 13.64L15.9839 13.6422L16.8771 13.6444L21.6265 20.0942Z" fill="white"/>
</svg>
